<svg width="112" height="112" viewBox="0 0 112 112" fill="none" xmlns="http://www.w3.org/2000/svg">
<g filter="url(#filter0_d_45_305)">
<circle cx="48" cy="48" r="40" fill="#D9D9D9"/>
</g>
<path d="M61.5969 47.0672C61.175 47.4891 60.6125 47.7 60.05 47.7C59.4172 47.7 58.8547 47.4891 58.4328 47.0672L51.05 39.6844V61.2C51.05 62.4656 49.9953 63.45 48.8 63.45C47.675 63.45 46.55 62.4656 46.55 61.2V39.6844L39.0969 47.0672C38.2531 47.9813 36.7766 47.9813 35.9328 47.0672C35.0188 46.2234 35.0188 44.7469 35.9328 43.9031L47.1828 32.6531C48.0266 31.7391 49.5031 31.7391 50.3469 32.6531L61.5969 43.9031C62.511 44.7469 62.511 46.2234 61.5969 47.0672Z" fill="#00FFF0"/>
<defs>
<filter id="filter0_d_45_305" x="0" y="0" width="112" height="112" filterUnits="userSpaceOnUse" color-interpolation-filters="sRGB">
<feFlood flood-opacity="0" result="BackgroundImageFix"/>
<feColorMatrix in="SourceAlpha" type="matrix" values="0 0 0 0 0 0 0 0 0 0 0 0 0 0 0 0 0 0 127 0" result="hardAlpha"/>
<feOffset dx="8" dy="8"/>
<feGaussianBlur stdDeviation="8"/>
<feColorMatrix type="matrix" values="0 0 0 0 0 0 0 0 0 0 0 0 0 0 0 0 0 0 0.5 0"/>
<feBlend mode="normal" in2="BackgroundImageFix" result="effect1_dropShadow_45_305"/>
<feBlend mode="normal" in="SourceGraphic" in2="effect1_dropShadow_45_305" result="shape"/>
</filter>
</defs>
</svg>
