<svg width="35" height="32" viewBox="0 0 35 32" fill="none" xmlns="http://www.w3.org/2000/svg">
<path d="M4.375 25.7188C4.375 26.334 4.85352 26.8125 5.46875 26.8125H32.8125C33.9746 26.8125 35 27.8379 35 29C35 30.2305 33.9746 31.1875 32.8125 31.1875H5.46875C2.39258 31.1875 0 28.7949 0 25.7188V2.75C0 1.58789 0.957031 0.5625 2.1875 0.5625C3.34961 0.5625 4.375 1.58789 4.375 2.75V25.7188ZM23.3789 17.4473C22.5586 18.3359 21.123 18.3359 20.3027 17.4473L16.4062 13.5508L10.2539 19.6348C9.43359 20.5234 7.99805 20.5234 7.17773 19.6348C6.28906 18.8145 6.28906 17.3789 7.17773 16.5586L14.834 8.90234C15.6543 8.01367 17.0898 8.01367 17.9102 8.90234L21.875 12.7988L29.0527 5.62109C29.873 4.73242 31.3086 4.73242 32.1289 5.62109C33.0176 6.44141 33.0176 7.87695 32.1289 8.69727L23.3789 17.4473Z" fill="white"/>
</svg>
