<svg width="35" height="32" viewBox="0 0 35 32" fill="none" xmlns="http://www.w3.org/2000/svg">
<path d="M2.1875 0.5625C3.34961 0.5625 4.375 1.58789 4.375 2.75V25.7188C4.375 26.334 4.85352 26.8125 5.46875 26.8125H32.8125C33.9746 26.8125 35 27.8379 35 29C35 30.2305 33.9746 31.1875 32.8125 31.1875H5.46875C2.39258 31.1875 0 28.7949 0 25.7188V2.75C0 1.58789 0.957031 0.5625 2.1875 0.5625ZM10.9375 13.6875C12.0996 13.6875 13.125 14.7129 13.125 15.875V20.25C13.125 21.4805 12.0996 22.4375 10.9375 22.4375C9.70703 22.4375 8.75 21.4805 8.75 20.25V15.875C8.75 14.7129 9.70703 13.6875 10.9375 13.6875ZM19.6875 20.25C19.6875 21.4805 18.6621 22.4375 17.5 22.4375C16.2695 22.4375 15.3125 21.4805 15.3125 20.25V9.3125C15.3125 8.15039 16.2695 7.125 17.5 7.125C18.6621 7.125 19.6875 8.15039 19.6875 9.3125V20.25ZM24.0625 11.5C25.2246 11.5 26.25 12.5254 26.25 13.6875V20.25C26.25 21.4805 25.2246 22.4375 24.0625 22.4375C22.832 22.4375 21.875 21.4805 21.875 20.25V13.6875C21.875 12.5254 22.832 11.5 24.0625 11.5ZM32.8125 20.25C32.8125 21.4805 31.7871 22.4375 30.625 22.4375C29.3945 22.4375 28.4375 21.4805 28.4375 20.25V4.9375C28.4375 3.77539 29.3945 2.75 30.625 2.75C31.7871 2.75 32.8125 3.77539 32.8125 4.9375V20.25Z" fill="white"/>
</svg>
