<svg width="19" height="14" viewBox="0 0 19 14" fill="none" xmlns="http://www.w3.org/2000/svg">
<path d="M16.5756 0.282258H1.71472C0.750189 0.282258 0 1.06817 0 1.99698V12.2853C0 13.2498 0.750189 14 1.71472 14H16.5756C17.5044 14 18.2903 13.2498 18.2903 12.2853V1.99698C18.2903 1.06817 17.5044 0.282258 16.5756 0.282258ZM16.5756 1.99698V3.46163C15.754 4.14037 14.4679 5.14062 11.753 7.28402C11.1457 7.74842 9.9668 8.89157 9.14516 8.85585C8.2878 8.89157 7.10893 7.74842 6.50164 7.28402C3.78667 5.14062 2.50063 4.14037 1.71472 3.46163V1.99698H16.5756ZM1.71472 12.2853V5.67647C2.50063 6.31949 3.6795 7.2483 5.42994 8.64151C6.21585 9.2488 7.60906 10.6063 9.14516 10.5706C10.6455 10.6063 12.003 9.2488 12.8247 8.64151C14.5751 7.2483 15.754 6.31949 16.5756 5.67647V12.2853H1.71472Z" fill="black"/>
</svg>
