<svg width="35" height="36" viewBox="0 0 35 36" fill="none" xmlns="http://www.w3.org/2000/svg">
<path d="M24.0625 17.875C24.0625 19.4473 23.9258 20.8828 23.7891 22.25H11.1426C11.0059 20.8828 10.8691 19.4473 10.8691 17.875C10.8691 16.3711 11.0059 14.9355 11.1426 13.5H23.7891C23.9258 14.9355 24.0625 16.3711 24.0625 17.875ZM34.3848 13.5C34.7949 14.9355 35 16.3711 35 17.875C35 19.4473 34.7949 20.8828 34.3848 22.25H25.9766C26.1133 20.8828 26.25 19.3789 26.25 17.875C26.25 16.3711 26.1133 14.9355 25.9766 13.5H34.3848ZM33.7012 11.3125H25.7031C25.0195 7.00586 23.6523 3.31445 21.9434 0.990234C27.2754 2.42578 31.6504 6.25391 33.7012 11.3125ZM23.5156 11.3125H11.416C11.8262 8.85156 12.5098 6.66406 13.2617 4.88672C14.0137 3.24609 14.7656 2.08398 15.5859 1.33203C16.3379 0.648438 16.9531 0.375 17.5 0.375C17.9785 0.375 18.5938 0.648438 19.3457 1.33203C20.166 2.08398 20.918 3.24609 21.6699 4.88672C22.4219 6.66406 23.1055 8.85156 23.5156 11.3125ZM1.23047 11.3125C3.28125 6.25391 7.65625 2.42578 12.9883 0.990234C11.2793 3.31445 9.91211 7.00586 9.22852 11.3125H1.23047ZM8.95508 13.5C8.81836 14.9355 8.68164 16.3711 8.68164 17.875C8.68164 19.3789 8.81836 20.8828 8.95508 22.25H0.546875C0.136719 20.8828 0 19.4473 0 17.875C0 16.3711 0.136719 14.9355 0.546875 13.5H8.95508ZM13.2617 30.9316C12.5098 29.1543 11.8262 26.9668 11.416 24.4375H23.5156C23.1055 26.9668 22.4219 29.1543 21.6699 30.9316C20.918 32.5723 20.166 33.7344 19.3457 34.4863C18.5938 35.1699 17.9785 35.375 17.4316 35.375C16.9531 35.375 16.3379 35.1699 15.5859 34.4863C14.7656 33.7344 14.0137 32.5723 13.2617 30.9316ZM12.9883 34.8281C7.65625 33.3926 3.28125 29.5645 1.23047 24.4375H9.22852C9.91211 28.8125 11.2793 32.5039 12.9883 34.8281ZM21.9434 34.8281C23.6523 32.5039 25.0195 28.8125 25.7031 24.4375H33.7012C31.6504 29.5645 27.2754 33.3926 21.9434 34.8281Z" fill="white"/>
</svg>
