<svg width="80" height="81" viewBox="0 0 80 81" fill="none" xmlns="http://www.w3.org/2000/svg">
<path d="M29.2156 28.1506C27.7097 28.1506 26.3444 27.8494 25.1196 27.2471C23.8948 26.6447 22.8407 25.8315 21.9572 24.8075C21.0738 23.7635 20.3911 22.5989 19.9092 21.3139C19.4273 20.0088 19.1864 18.6736 19.1864 17.3082C19.1864 15.8827 19.4374 14.5274 19.9393 13.2424C20.4413 11.9373 21.144 10.7827 22.0476 9.77882C22.9712 8.75482 24.0454 7.95169 25.2702 7.36941C26.4949 6.76706 27.8201 6.46588 29.2457 6.46588C30.7516 6.46588 32.1169 6.7771 33.3417 7.39953C34.5665 8.02196 35.6105 8.85521 36.4739 9.89929C37.3574 10.9434 38.04 12.1079 38.5219 13.3929C39.0038 14.678 39.2447 15.9931 39.2447 17.3384C39.2447 18.7639 38.9938 20.1293 38.4918 21.4344C37.9898 22.7194 37.2871 23.8739 36.3836 24.8979C35.48 25.9018 34.4159 26.6949 33.1911 27.2772C31.9663 27.8595 30.6411 28.1506 29.2156 28.1506ZM21.2946 17.3082C21.2946 18.4728 21.4854 19.5972 21.8669 20.6814C22.2483 21.7456 22.7905 22.6993 23.4932 23.5426C24.196 24.3658 25.0292 25.0284 25.993 25.5304C26.9768 26.0122 28.051 26.2532 29.2156 26.2532C30.4404 26.2532 31.5346 26.0022 32.4984 25.5002C33.4822 24.9782 34.3155 24.2955 34.9982 23.4522C35.7009 22.5889 36.233 21.6251 36.5944 20.5609C36.9558 19.4968 37.1365 18.4125 37.1365 17.3082C37.1365 16.1437 36.9458 15.0293 36.5643 13.9652C36.1828 12.901 35.6306 11.9473 34.9078 11.104C34.2051 10.2607 33.3718 9.59812 32.408 9.11623C31.4443 8.63435 30.3801 8.39341 29.2156 8.39341C28.0109 8.39341 26.9166 8.64439 25.9327 9.14635C24.969 9.64831 24.1357 10.331 23.433 11.1944C22.7503 12.0376 22.2182 12.9914 21.8367 14.0555C21.4753 15.1197 21.2946 16.2039 21.2946 17.3082ZM49.0513 6.61647H50.8283L59.713 28H57.4843L54.7134 21.3139H45.1059L42.3652 28H40.1064L49.0513 6.61647ZM54.2316 19.6574L49.9247 9.08612L45.5577 19.6574H54.2316Z" fill="#000E8A"/>
<path d="M43.8401 33.9859H32.305V32.0885H47.0928L36.2805 53.472H33.9314L43.8401 33.9859Z" fill="#00FFF0"/>
<path d="M4.16195 67.098V59.0792H5.42689V67.098H4.16195ZM8.5041 61.4284V67.098H7.23916V59.0792H8.27822L12.8185 64.8731V59.0905H14.0947V67.098H12.9879L8.5041 61.4284ZM19.1725 67.1545C18.6455 67.1545 18.1523 67.0453 17.693 66.827C17.2337 66.6086 16.8309 66.3074 16.4845 65.9234C16.1457 65.5394 15.8784 65.1027 15.6827 64.6133C15.4944 64.1239 15.4003 63.6044 15.4003 63.0547C15.4003 62.5051 15.4944 61.9893 15.6827 61.5074C15.8784 61.0256 16.1457 60.5964 16.4845 60.2199C16.8309 59.8434 17.2337 59.5498 17.693 59.339C18.1598 59.1282 18.6681 59.0227 19.2177 59.0227C19.9782 59.0227 20.6182 59.1846 21.1377 59.5084C21.6648 59.8246 22.0601 60.2463 22.3236 60.7733L21.3523 61.4736C21.1415 61.0369 20.8403 60.7093 20.4488 60.491C20.0648 60.2726 19.6431 60.1634 19.1838 60.1634C18.8074 60.1634 18.4648 60.2425 18.1561 60.4006C17.8474 60.5587 17.5801 60.7771 17.3542 61.0557C17.1358 61.3267 16.9702 61.6392 16.8572 61.9931C16.7443 62.3394 16.6878 62.7046 16.6878 63.0886C16.6878 63.4952 16.7518 63.8754 16.8798 64.2293C17.0078 64.5832 17.1885 64.8957 17.422 65.1667C17.6554 65.4303 17.9302 65.6373 18.2464 65.7879C18.5627 65.9385 18.9052 66.0138 19.2742 66.0138C19.7109 66.0138 20.125 65.9046 20.5165 65.6863C20.9156 65.4604 21.2883 65.1253 21.6347 64.6811V65.9686C20.9344 66.7592 20.1137 67.1545 19.1725 67.1545ZM21.5104 63.9809H19.8276V63.0434H22.5721V67.098H21.5104V63.9809ZM29.5151 65.9799V67.098H24.0149V59.0792H29.4135V60.1973H25.2798V62.4787H28.8601V63.5291H25.2798V65.9799H29.5151ZM32.085 61.4284V67.098H30.82V59.0792H31.8591L36.3993 64.8731V59.0905H37.6756V67.098H36.5687L32.085 61.4284ZM39.4781 67.098V59.0792H40.7431V67.098H39.4781ZM48.0556 65.9799V67.098H42.5553V59.0792H47.9539V60.1973H43.8203V62.4787H47.4005V63.5291H43.8203V65.9799H48.0556ZM49.3605 67.098V59.0792H52.8504C53.2118 59.0792 53.5431 59.1545 53.8442 59.3051C54.1454 59.4557 54.4052 59.6552 54.6235 59.9037C54.8494 60.1522 55.0226 60.4307 55.1431 60.7394C55.2711 61.0482 55.3351 61.3644 55.3351 61.6882C55.3351 62.042 55.2711 62.3809 55.1431 62.7046C55.0151 63.0284 54.8306 63.307 54.5897 63.5404C54.3562 63.7738 54.0814 63.9432 53.7652 64.0486L55.6513 67.098H54.2282L52.489 64.3084H50.6254V67.098H49.3605ZM50.6254 63.1903H52.8391C53.0725 63.1903 53.2795 63.1225 53.4602 62.987C53.641 62.8514 53.784 62.6707 53.8894 62.4449C53.9948 62.2114 54.0475 61.9592 54.0475 61.6882C54.0475 61.4096 53.9873 61.1611 53.8668 60.9427C53.7464 60.7169 53.5882 60.5362 53.3925 60.4006C53.2042 60.2651 52.9972 60.1973 52.7713 60.1973H50.6254V63.1903ZM56.8274 67.098V59.0792H58.0923V67.098H56.8274ZM62.2199 59.0792H63.4171L66.5342 67.098H65.2015L64.3545 64.9183H61.2599L60.4241 67.098H59.0801L62.2199 59.0792ZM64.106 63.9809L62.8185 60.4684L61.4858 63.9809H64.106ZM72.1592 60.9653C72.0839 60.8825 71.9747 60.7959 71.8316 60.7056C71.6886 60.6077 71.5192 60.5173 71.3234 60.4345C71.1276 60.3517 70.9168 60.2839 70.6909 60.2312C70.465 60.1785 70.2316 60.1522 69.9907 60.1522C69.4636 60.1522 69.0721 60.25 68.8161 60.4458C68.5601 60.6416 68.4321 60.9126 68.4321 61.259C68.4321 61.515 68.5036 61.7183 68.6467 61.8689C68.7897 62.0119 69.0081 62.1324 69.3017 62.2303C69.5954 62.3282 69.9643 62.4336 70.4086 62.5465C70.9507 62.6745 71.4213 62.8289 71.8203 63.0096C72.2194 63.1827 72.5243 63.4162 72.7352 63.7098C72.946 64.0034 73.0514 64.3912 73.0514 64.8731C73.0514 65.2797 72.9761 65.6298 72.8255 65.9234C72.6749 66.2171 72.4641 66.458 72.193 66.6463C71.922 66.827 71.6095 66.9625 71.2556 67.0529C70.9017 67.1357 70.5215 67.1771 70.1149 67.1771C69.7159 67.1771 69.3168 67.1357 68.9177 67.0529C68.5262 66.97 68.1497 66.8496 67.7883 66.6914C67.4345 66.5258 67.1069 66.3263 66.8057 66.0929L67.3817 65.0086C67.4796 65.1065 67.6189 65.2157 67.7996 65.3362C67.9879 65.4491 68.2025 65.5583 68.4434 65.6637C68.6919 65.7691 68.9592 65.8594 69.2453 65.9347C69.5389 66.0025 69.8363 66.0364 70.1375 66.0364C70.642 66.0364 71.026 65.9498 71.2895 65.7766C71.5606 65.5959 71.6961 65.3399 71.6961 65.0086C71.6961 64.7376 71.6095 64.523 71.4363 64.3649C71.2632 64.1992 71.0109 64.0599 70.6796 63.947C70.3483 63.834 69.953 63.7211 69.4937 63.6082C68.9667 63.4651 68.5262 63.3107 68.1723 63.1451C67.8185 62.9719 67.5512 62.7536 67.3705 62.49C67.1973 62.219 67.1107 61.8764 67.1107 61.4623C67.1107 60.9352 67.2387 60.491 67.4947 60.1296C67.7507 59.7606 68.097 59.4858 68.5337 59.3051C68.978 59.1169 69.4749 59.0227 70.0246 59.0227C70.386 59.0227 70.7286 59.0642 71.0523 59.147C71.3761 59.2223 71.6773 59.3277 71.9559 59.4632C72.242 59.5987 72.5017 59.7531 72.7352 59.9263L72.1592 60.9653Z" fill="black"/>
<path d="M29.2156 28.1506C27.7097 28.1506 26.3444 27.8494 25.1196 27.2471C23.8948 26.6447 22.8407 25.8315 21.9572 24.8075C21.0738 23.7635 20.3911 22.5989 19.9092 21.3139C19.4273 20.0088 19.1864 18.6736 19.1864 17.3082C19.1864 15.8827 19.4374 14.5274 19.9393 13.2424C20.4413 11.9373 21.144 10.7827 22.0476 9.77882C22.9712 8.75482 24.0454 7.95169 25.2702 7.36941C26.4949 6.76706 27.8201 6.46588 29.2457 6.46588C30.7516 6.46588 32.1169 6.7771 33.3417 7.39953C34.5665 8.02196 35.6105 8.85521 36.4739 9.89929C37.3574 10.9434 38.04 12.1079 38.5219 13.3929C39.0038 14.678 39.2447 15.9931 39.2447 17.3384C39.2447 18.7639 38.9938 20.1293 38.4918 21.4344C37.9898 22.7194 37.2871 23.8739 36.3836 24.8979C35.48 25.9018 34.4159 26.6949 33.1911 27.2772C31.9663 27.8595 30.6411 28.1506 29.2156 28.1506ZM21.2946 17.3082C21.2946 18.4728 21.4854 19.5972 21.8669 20.6814C22.2483 21.7456 22.7905 22.6993 23.4932 23.5426C24.196 24.3658 25.0292 25.0284 25.993 25.5304C26.9768 26.0122 28.051 26.2532 29.2156 26.2532C30.4404 26.2532 31.5346 26.0022 32.4984 25.5002C33.4822 24.9782 34.3155 24.2955 34.9982 23.4522C35.7009 22.5889 36.233 21.6251 36.5944 20.5609C36.9558 19.4968 37.1365 18.4125 37.1365 17.3082C37.1365 16.1437 36.9458 15.0293 36.5643 13.9652C36.1828 12.901 35.6306 11.9473 34.9078 11.104C34.2051 10.2607 33.3718 9.59812 32.408 9.11623C31.4443 8.63435 30.3801 8.39341 29.2156 8.39341C28.0109 8.39341 26.9166 8.64439 25.9327 9.14635C24.969 9.64831 24.1357 10.331 23.433 11.1944C22.7503 12.0376 22.2182 12.9914 21.8367 14.0555C21.4753 15.1197 21.2946 16.2039 21.2946 17.3082ZM49.0513 6.61647H50.8283L59.713 28H57.4843L54.7134 21.3139H45.1059L42.3652 28H40.1064L49.0513 6.61647ZM54.2316 19.6574L49.9247 9.08612L45.5577 19.6574H54.2316Z" fill="#000E8A"/>
<path d="M43.8401 33.9859H32.305V32.0885H47.0928L36.2805 53.472H33.9314L43.8401 33.9859Z" fill="#00FFF0"/>
<path d="M4.16195 67.098V59.0792H5.42689V67.098H4.16195ZM8.5041 61.4284V67.098H7.23916V59.0792H8.27822L12.8185 64.8731V59.0905H14.0947V67.098H12.9879L8.5041 61.4284ZM19.1725 67.1545C18.6455 67.1545 18.1523 67.0453 17.693 66.827C17.2337 66.6086 16.8309 66.3074 16.4845 65.9234C16.1457 65.5394 15.8784 65.1027 15.6827 64.6133C15.4944 64.1239 15.4003 63.6044 15.4003 63.0547C15.4003 62.5051 15.4944 61.9893 15.6827 61.5074C15.8784 61.0256 16.1457 60.5964 16.4845 60.2199C16.8309 59.8434 17.2337 59.5498 17.693 59.339C18.1598 59.1282 18.6681 59.0227 19.2177 59.0227C19.9782 59.0227 20.6182 59.1846 21.1377 59.5084C21.6648 59.8246 22.0601 60.2463 22.3236 60.7733L21.3523 61.4736C21.1415 61.0369 20.8403 60.7093 20.4488 60.491C20.0648 60.2726 19.6431 60.1634 19.1838 60.1634C18.8074 60.1634 18.4648 60.2425 18.1561 60.4006C17.8474 60.5587 17.5801 60.7771 17.3542 61.0557C17.1358 61.3267 16.9702 61.6392 16.8572 61.9931C16.7443 62.3394 16.6878 62.7046 16.6878 63.0886C16.6878 63.4952 16.7518 63.8754 16.8798 64.2293C17.0078 64.5832 17.1885 64.8957 17.422 65.1667C17.6554 65.4303 17.9302 65.6373 18.2464 65.7879C18.5627 65.9385 18.9052 66.0138 19.2742 66.0138C19.7109 66.0138 20.125 65.9046 20.5165 65.6863C20.9156 65.4604 21.2883 65.1253 21.6347 64.6811V65.9686C20.9344 66.7592 20.1137 67.1545 19.1725 67.1545ZM21.5104 63.9809H19.8276V63.0434H22.5721V67.098H21.5104V63.9809ZM29.5151 65.9799V67.098H24.0149V59.0792H29.4135V60.1973H25.2798V62.4787H28.8601V63.5291H25.2798V65.9799H29.5151ZM32.085 61.4284V67.098H30.82V59.0792H31.8591L36.3993 64.8731V59.0905H37.6756V67.098H36.5687L32.085 61.4284ZM39.4781 67.098V59.0792H40.7431V67.098H39.4781ZM48.0556 65.9799V67.098H42.5553V59.0792H47.9539V60.1973H43.8203V62.4787H47.4005V63.5291H43.8203V65.9799H48.0556ZM49.3605 67.098V59.0792H52.8504C53.2118 59.0792 53.5431 59.1545 53.8442 59.3051C54.1454 59.4557 54.4052 59.6552 54.6235 59.9037C54.8494 60.1522 55.0226 60.4307 55.1431 60.7394C55.2711 61.0482 55.3351 61.3644 55.3351 61.6882C55.3351 62.042 55.2711 62.3809 55.1431 62.7046C55.0151 63.0284 54.8306 63.307 54.5897 63.5404C54.3562 63.7738 54.0814 63.9432 53.7652 64.0486L55.6513 67.098H54.2282L52.489 64.3084H50.6254V67.098H49.3605ZM50.6254 63.1903H52.8391C53.0725 63.1903 53.2795 63.1225 53.4602 62.987C53.641 62.8514 53.784 62.6707 53.8894 62.4449C53.9948 62.2114 54.0475 61.9592 54.0475 61.6882C54.0475 61.4096 53.9873 61.1611 53.8668 60.9427C53.7464 60.7169 53.5882 60.5362 53.3925 60.4006C53.2042 60.2651 52.9972 60.1973 52.7713 60.1973H50.6254V63.1903ZM56.8274 67.098V59.0792H58.0923V67.098H56.8274ZM62.2199 59.0792H63.4171L66.5342 67.098H65.2015L64.3545 64.9183H61.2599L60.4241 67.098H59.0801L62.2199 59.0792ZM64.106 63.9809L62.8185 60.4684L61.4858 63.9809H64.106ZM72.1592 60.9653C72.0839 60.8825 71.9747 60.7959 71.8316 60.7056C71.6886 60.6077 71.5192 60.5173 71.3234 60.4345C71.1276 60.3517 70.9168 60.2839 70.6909 60.2312C70.465 60.1785 70.2316 60.1522 69.9907 60.1522C69.4636 60.1522 69.0721 60.25 68.8161 60.4458C68.5601 60.6416 68.4321 60.9126 68.4321 61.259C68.4321 61.515 68.5036 61.7183 68.6467 61.8689C68.7897 62.0119 69.0081 62.1324 69.3017 62.2303C69.5954 62.3282 69.9643 62.4336 70.4086 62.5465C70.9507 62.6745 71.4213 62.8289 71.8203 63.0096C72.2194 63.1827 72.5243 63.4162 72.7352 63.7098C72.946 64.0034 73.0514 64.3912 73.0514 64.8731C73.0514 65.2797 72.9761 65.6298 72.8255 65.9234C72.6749 66.2171 72.4641 66.458 72.193 66.6463C71.922 66.827 71.6095 66.9625 71.2556 67.0529C70.9017 67.1357 70.5215 67.1771 70.1149 67.1771C69.7159 67.1771 69.3168 67.1357 68.9177 67.0529C68.5262 66.97 68.1497 66.8496 67.7883 66.6914C67.4345 66.5258 67.1069 66.3263 66.8057 66.0929L67.3817 65.0086C67.4796 65.1065 67.6189 65.2157 67.7996 65.3362C67.9879 65.4491 68.2025 65.5583 68.4434 65.6637C68.6919 65.7691 68.9592 65.8594 69.2453 65.9347C69.5389 66.0025 69.8363 66.0364 70.1375 66.0364C70.642 66.0364 71.026 65.9498 71.2895 65.7766C71.5606 65.5959 71.6961 65.3399 71.6961 65.0086C71.6961 64.7376 71.6095 64.523 71.4363 64.3649C71.2632 64.1992 71.0109 64.0599 70.6796 63.947C70.3483 63.834 69.953 63.7211 69.4937 63.6082C68.9667 63.4651 68.5262 63.3107 68.1723 63.1451C67.8185 62.9719 67.5512 62.7536 67.3705 62.49C67.1973 62.219 67.1107 61.8764 67.1107 61.4623C67.1107 60.9352 67.2387 60.491 67.4947 60.1296C67.7507 59.7606 68.097 59.4858 68.5337 59.3051C68.978 59.1169 69.4749 59.0227 70.0246 59.0227C70.386 59.0227 70.7286 59.0642 71.0523 59.147C71.3761 59.2223 71.6773 59.3277 71.9559 59.4632C72.242 59.5987 72.5017 59.7531 72.7352 59.9263L72.1592 60.9653Z" fill="black"/>
<path d="M4.582 75.1388V78.7843H4.14278V74.3294H4.5067L7.43063 78.0439V74.3357H7.86984V78.7843H7.462L4.582 75.1388ZM8.90175 78.7843V75.5153H9.32842V78.7843H8.90175ZM8.90175 74.8314V74.2039H9.32842V74.8314H8.90175ZM13.0164 78.7843H12.5897V76.9584C12.5897 76.5736 12.5333 76.2933 12.4203 76.1177C12.3074 75.9378 12.1296 75.8478 11.887 75.8478C11.7197 75.8478 11.5544 75.8897 11.3913 75.9733C11.2282 76.0528 11.0839 76.1637 10.9584 76.3059C10.8371 76.4439 10.7492 76.6029 10.6948 76.7827V78.7843H10.2682V75.5153H10.6572V76.2557C10.745 76.0967 10.8601 75.9587 11.0023 75.8416C11.1445 75.7203 11.3056 75.6261 11.4854 75.5592C11.6653 75.4923 11.8514 75.4588 12.0439 75.4588C12.2237 75.4588 12.3764 75.4923 12.5019 75.5592C12.6274 75.6261 12.7278 75.7224 12.8031 75.8478C12.8784 75.9692 12.9327 76.1177 12.9662 76.2933C12.9997 76.4648 13.0164 76.6573 13.0164 76.8706V78.7843ZM15.2376 78.8282C15.0159 78.8282 14.811 78.7822 14.6227 78.6902C14.4345 78.5982 14.2714 78.4748 14.1333 78.32C13.9995 78.161 13.8949 77.9812 13.8196 77.7804C13.7443 77.5796 13.7067 77.3726 13.7067 77.1592C13.7067 76.9292 13.7422 76.7137 13.8133 76.5129C13.8886 76.308 13.9932 76.126 14.127 75.9671C14.2651 75.8081 14.4261 75.6847 14.6102 75.5969C14.7942 75.5048 14.9992 75.4588 15.2251 75.4588C15.5053 75.4588 15.748 75.5299 15.9529 75.6722C16.1621 75.8144 16.3378 75.9901 16.48 76.1992V75.5153H16.8627V78.7969C16.8627 79.098 16.7895 79.3511 16.6431 79.5561C16.5009 79.7652 16.3064 79.9221 16.0596 80.0267C15.817 80.1312 15.5514 80.1835 15.2627 80.1835C14.8904 80.1835 14.5893 80.1166 14.3592 79.9827C14.1291 79.8489 13.9409 79.669 13.7945 79.4431L14.058 79.2361C14.1877 79.441 14.3592 79.5937 14.5725 79.6941C14.7901 79.7945 15.0201 79.8447 15.2627 79.8447C15.4761 79.8447 15.6706 79.805 15.8463 79.7255C16.0261 79.6502 16.1684 79.5352 16.2729 79.3804C16.3817 79.2256 16.4361 79.0311 16.4361 78.7969V78.1506C16.3106 78.3556 16.1391 78.5208 15.9216 78.6463C15.704 78.7676 15.4761 78.8282 15.2376 78.8282ZM15.3569 78.4706C15.4865 78.4706 15.6099 78.4476 15.727 78.4016C15.8484 78.3556 15.9592 78.2949 16.0596 78.2196C16.16 78.1401 16.2436 78.0523 16.3106 77.9561C16.3775 77.8599 16.4193 77.7616 16.4361 77.6612V76.651C16.3733 76.492 16.2834 76.3519 16.1663 76.2306C16.0491 76.1051 15.9153 76.0089 15.7647 75.942C15.6183 75.8709 15.4656 75.8353 15.3067 75.8353C15.1226 75.8353 14.9574 75.875 14.811 75.9545C14.6687 76.0298 14.5474 76.1323 14.447 76.262C14.3508 76.3875 14.2755 76.5297 14.2212 76.6886C14.1668 76.8476 14.1396 77.0065 14.1396 77.1655C14.1396 77.3412 14.171 77.5085 14.2337 77.6675C14.2965 77.8222 14.3822 77.9624 14.491 78.0878C14.6039 78.2092 14.7336 78.3033 14.88 78.3702C15.0306 78.4371 15.1895 78.4706 15.3569 78.4706ZM17.7736 77.4353V75.5153H18.2002V77.36C18.2002 77.7323 18.263 78.0105 18.3885 78.1945C18.5181 78.3786 18.7085 78.4706 18.9594 78.4706C19.1268 78.4706 19.2878 78.435 19.4426 78.3639C19.6015 78.2886 19.7417 78.1841 19.863 78.0502C19.9843 77.9122 20.0763 77.7532 20.1391 77.5733V75.5153H20.5657V78.2698C20.5657 78.3284 20.5783 78.3723 20.6034 78.4016C20.6285 78.4267 20.6661 78.4413 20.7163 78.4455V78.7843C20.6661 78.7885 20.6264 78.7906 20.5971 78.7906C20.5678 78.7948 20.5406 78.7969 20.5155 78.7969C20.4319 78.7885 20.3587 78.755 20.2959 78.6965C20.2374 78.6379 20.206 78.5668 20.2018 78.4831L20.1893 78.0439C20.047 78.2949 19.8525 78.4915 19.6057 78.6337C19.3631 78.776 19.0996 78.8471 18.8151 78.8471C18.4721 78.8471 18.2128 78.7278 18.0371 78.4894C17.8614 78.251 17.7736 77.8996 17.7736 77.4353ZM19.3045 74.8941L19.0222 74.7875L19.3924 74.2039H19.8442L19.3045 74.8941ZM24.2787 78.7843H23.852V76.9584C23.852 76.5736 23.7955 76.2933 23.6826 76.1177C23.5696 75.9378 23.3919 75.8478 23.1493 75.8478C22.9819 75.8478 22.8167 75.8897 22.6536 75.9733C22.4904 76.0528 22.3461 76.1637 22.2206 76.3059C22.0993 76.4439 22.0115 76.6029 21.9571 76.7827V78.7843H21.5304V75.5153H21.9194V76.2557C22.0073 76.0967 22.1223 75.9587 22.2645 75.8416C22.4068 75.7203 22.5678 75.6261 22.7477 75.5592C22.9276 75.4923 23.1137 75.4588 23.3061 75.4588C23.486 75.4588 23.6387 75.4923 23.7642 75.5592C23.8896 75.6261 23.99 75.7224 24.0653 75.8478C24.1406 75.9692 24.195 76.1177 24.2285 76.2933C24.2619 76.4648 24.2787 76.6573 24.2787 76.8706V78.7843ZM26.5682 77.1592C26.5682 76.8497 26.6309 76.5673 26.7564 76.3122C26.8861 76.0528 27.0639 75.8458 27.2897 75.691C27.5156 75.5362 27.7729 75.4588 28.0615 75.4588C28.3334 75.4588 28.576 75.532 28.7894 75.6784C29.0069 75.8207 29.1763 75.9943 29.2976 76.1992V74.2039H29.7243V78.2698C29.7243 78.3284 29.7368 78.3723 29.7619 78.4016C29.787 78.4267 29.8246 78.4413 29.8748 78.4455V78.7843C29.7912 78.7969 29.7263 78.801 29.6803 78.7969C29.5925 78.7927 29.5151 78.7571 29.4482 78.6902C29.3812 78.6233 29.3478 78.5501 29.3478 78.4706V78.1506C29.2181 78.3639 29.0424 78.5333 28.8207 78.6588C28.599 78.7843 28.369 78.8471 28.1305 78.8471C27.9046 78.8471 27.6955 78.801 27.5031 78.709C27.3148 78.617 27.1496 78.4915 27.0074 78.3326C26.8694 78.1736 26.7606 77.9937 26.6811 77.7929C26.6058 77.588 26.5682 77.3767 26.5682 77.1592ZM29.2976 77.6612V76.651C29.2432 76.5004 29.1554 76.3644 29.0341 76.2431C28.9127 76.1177 28.7747 76.0193 28.6199 75.9482C28.4694 75.8729 28.3188 75.8353 28.1682 75.8353C27.9925 75.8353 27.8335 75.8729 27.6913 75.9482C27.5491 76.0193 27.4257 76.1177 27.3211 76.2431C27.2207 76.3686 27.1433 76.5109 27.089 76.6698C27.0346 76.8288 27.0074 76.9919 27.0074 77.1592C27.0074 77.3349 27.0367 77.5022 27.0952 77.6612C27.158 77.8201 27.2458 77.9624 27.3588 78.0878C27.4717 78.2092 27.6014 78.3033 27.7478 78.3702C27.8942 78.4371 28.0531 78.4706 28.2246 78.4706C28.3334 78.4706 28.4463 78.4497 28.5635 78.4078C28.6806 78.366 28.7914 78.3095 28.896 78.2384C29.0048 78.1631 29.0947 78.0753 29.1658 77.9749C29.2369 77.8745 29.2809 77.7699 29.2976 77.6612ZM30.691 78.7843V75.5153H31.1176V78.7843H30.691ZM31.0486 74.8941L30.7663 74.7875L31.1365 74.2039H31.5882L31.0486 74.8941ZM31.7939 77.8431C31.7939 77.6382 31.8524 77.4625 31.9695 77.3161C32.0867 77.1655 32.2477 77.0505 32.4527 76.971C32.6618 76.8873 32.9024 76.8455 33.1743 76.8455C33.3332 76.8455 33.4984 76.858 33.6699 76.8831C33.8414 76.9082 33.9941 76.9459 34.128 76.9961V76.72C34.128 76.4439 34.0464 76.2243 33.8833 76.0612C33.7201 75.898 33.4943 75.8165 33.2056 75.8165C33.0299 75.8165 32.8563 75.8499 32.6848 75.9169C32.5175 75.9796 32.3418 76.0737 32.1578 76.1992L31.9946 75.898C32.208 75.7516 32.4171 75.6429 32.6221 75.5718C32.8271 75.4965 33.0362 75.4588 33.2495 75.4588C33.6511 75.4588 33.969 75.5739 34.2033 75.8039C34.4375 76.034 34.5546 76.3519 34.5546 76.7577V78.2698C34.5546 78.3284 34.5672 78.3723 34.5923 78.4016C34.6174 78.4267 34.6571 78.4413 34.7115 78.4455V78.7843C34.6655 78.7885 34.6258 78.7927 34.5923 78.7969C34.5588 78.801 34.5337 78.801 34.517 78.7969C34.4124 78.7927 34.3329 78.7592 34.2786 78.6965C34.2242 78.6337 34.1949 78.5668 34.1907 78.4957L34.1844 78.2573C34.038 78.4455 33.8477 78.5919 33.6135 78.6965C33.3792 78.7969 33.1408 78.8471 32.8982 78.8471C32.689 78.8471 32.4987 78.8031 32.3272 78.7153C32.1599 78.6233 32.0281 78.502 31.9319 78.3514C31.8399 78.1966 31.7939 78.0272 31.7939 77.8431ZM33.9837 78.0941C34.0297 78.0356 34.0652 77.9791 34.0903 77.9247C34.1154 77.8703 34.128 77.8222 34.128 77.7804V77.3035C33.9858 77.2492 33.8373 77.2073 33.6825 77.178C33.5319 77.1488 33.3792 77.1341 33.2244 77.1341C32.9191 77.1341 32.6723 77.1948 32.4841 77.3161C32.2958 77.4374 32.2017 77.6026 32.2017 77.8118C32.2017 77.9331 32.2331 78.0481 32.2958 78.1569C32.3586 78.2614 32.4506 78.3493 32.5719 78.4204C32.6932 78.4873 32.8354 78.5208 32.9986 78.5208C33.2035 78.5208 33.3939 78.481 33.5695 78.4016C33.7494 78.3221 33.8875 78.2196 33.9837 78.0941ZM38.1487 78.8471C37.881 78.8471 37.6321 78.8031 37.402 78.7153C37.172 78.6275 36.9733 78.4936 36.806 78.3137L36.9817 78.0126C37.1657 78.1841 37.3498 78.3095 37.5338 78.389C37.722 78.4643 37.9207 78.502 38.1299 78.502C38.3851 78.502 38.5921 78.4518 38.7511 78.3514C38.91 78.2468 38.9895 78.0983 38.9895 77.9059C38.9895 77.7762 38.9498 77.6779 38.8703 77.611C38.795 77.5399 38.6841 77.4834 38.5377 77.4416C38.3955 77.3956 38.224 77.3475 38.0232 77.2973C37.7973 77.2345 37.607 77.1697 37.4522 77.1027C37.3017 77.0316 37.1866 76.9438 37.1071 76.8392C37.0318 76.7305 36.9942 76.5903 36.9942 76.4188C36.9942 76.2055 37.0465 76.0298 37.1511 75.8918C37.2598 75.7495 37.4062 75.6429 37.5903 75.5718C37.7785 75.4965 37.9877 75.4588 38.2177 75.4588C38.4687 75.4588 38.6904 75.4986 38.8828 75.578C39.0752 75.6575 39.2321 75.7684 39.3534 75.9106L39.1464 76.1992C39.0292 76.0654 38.8891 75.9671 38.726 75.9043C38.567 75.8374 38.3892 75.8039 38.1926 75.8039C38.0588 75.8039 37.9312 75.8227 37.8099 75.8604C37.6886 75.8939 37.5882 75.9524 37.5087 76.0361C37.4334 76.1156 37.3958 76.2264 37.3958 76.3686C37.3958 76.4858 37.4251 76.5778 37.4836 76.6447C37.5422 76.7075 37.63 76.7618 37.7471 76.8078C37.8643 76.8497 38.0086 76.8957 38.1801 76.9459C38.4269 77.0128 38.6423 77.0818 38.8264 77.1529C39.0104 77.2199 39.1526 77.3077 39.253 77.4165C39.3534 77.5252 39.4036 77.6779 39.4036 77.8745C39.4036 78.1799 39.2886 78.4183 39.0585 78.5898C38.8285 78.7613 38.5252 78.8471 38.1487 78.8471ZM40.1089 78.7843V75.5153H40.5355V78.7843H40.1089ZM40.1089 74.8314V74.2039H40.5355V74.8314H40.1089ZM44.2235 78.7843H43.7969V76.9584C43.7969 76.5736 43.7404 76.2933 43.6274 76.1177C43.5145 75.9378 43.3367 75.8478 43.0941 75.8478C42.9268 75.8478 42.7616 75.8897 42.5984 75.9733C42.4353 76.0528 42.291 76.1637 42.1655 76.3059C42.0442 76.4439 41.9563 76.6029 41.902 76.7827V78.7843H41.4753V75.5153H41.8643V76.2557C41.9521 76.0967 42.0672 75.9587 42.2094 75.8416C42.3516 75.7203 42.5127 75.6261 42.6925 75.5592C42.8724 75.4923 43.0586 75.4588 43.251 75.4588C43.4308 75.4588 43.5835 75.4923 43.709 75.5592C43.8345 75.6261 43.9349 75.7224 44.0102 75.8478C44.0855 75.9692 44.1399 76.1177 44.1733 76.2933C44.2068 76.4648 44.2235 76.6573 44.2235 76.8706V78.7843ZM46.7013 77.4353V75.5153H47.1279V77.36C47.1279 77.7323 47.1907 78.0105 47.3162 78.1945C47.4458 78.3786 47.6362 78.4706 47.8871 78.4706C48.0545 78.4706 48.2155 78.435 48.3703 78.3639C48.5292 78.2886 48.6694 78.1841 48.7907 78.0502C48.912 77.9122 49.004 77.7532 49.0668 77.5733V75.5153H49.4934V78.2698C49.4934 78.3284 49.506 78.3723 49.5311 78.4016C49.5562 78.4267 49.5938 78.4413 49.644 78.4455V78.7843C49.5938 78.7885 49.5541 78.7906 49.5248 78.7906C49.4955 78.7948 49.4683 78.7969 49.4432 78.7969C49.3596 78.7885 49.2864 78.755 49.2236 78.6965C49.1651 78.6379 49.1337 78.5668 49.1295 78.4831L49.1169 78.0439C48.9747 78.2949 48.7802 78.4915 48.5334 78.6337C48.2908 78.776 48.0273 78.8471 47.7428 78.8471C47.3998 78.8471 47.1405 78.7278 46.9648 78.4894C46.7891 78.251 46.7013 77.8996 46.7013 77.4353ZM53.2064 78.7843H52.7797V76.9584C52.7797 76.5736 52.7232 76.2933 52.6103 76.1177C52.4973 75.9378 52.3196 75.8478 52.0769 75.8478C51.9096 75.8478 51.7444 75.8897 51.5813 75.9733C51.4181 76.0528 51.2738 76.1637 51.1483 76.3059C51.027 76.4439 50.9392 76.6029 50.8848 76.7827V78.7843H50.4581V75.5153H50.8471V76.2557C50.935 76.0967 51.05 75.9587 51.1922 75.8416C51.3345 75.7203 51.4955 75.6261 51.6754 75.5592C51.8552 75.4923 52.0414 75.4588 52.2338 75.4588C52.4137 75.4588 52.5664 75.4923 52.6919 75.5592C52.8173 75.6261 52.9177 75.7224 52.993 75.8478C53.0683 75.9692 53.1227 76.1177 53.1562 76.2933C53.1896 76.4648 53.2064 76.6573 53.2064 76.8706V78.7843ZM53.8527 77.8431C53.8527 77.6382 53.9112 77.4625 54.0284 77.3161C54.1455 77.1655 54.3065 77.0505 54.5115 76.971C54.7207 76.8873 54.9612 76.8455 55.2331 76.8455C55.392 76.8455 55.5573 76.858 55.7288 76.8831C55.9003 76.9082 56.0529 76.9459 56.1868 76.9961V76.72C56.1868 76.4439 56.1052 76.2243 55.9421 76.0612C55.779 75.898 55.5531 75.8165 55.2644 75.8165C55.0888 75.8165 54.9152 75.8499 54.7437 75.9169C54.5763 75.9796 54.4007 76.0737 54.2166 76.1992L54.0535 75.898C54.2668 75.7516 54.476 75.6429 54.6809 75.5718C54.8859 75.4965 55.095 75.4588 55.3084 75.4588C55.7099 75.4588 56.0278 75.5739 56.2621 75.8039C56.4963 76.034 56.6135 76.3519 56.6135 76.7577V78.2698C56.6135 78.3284 56.626 78.3723 56.6511 78.4016C56.6762 78.4267 56.716 78.4413 56.7703 78.4455V78.7843C56.7243 78.7885 56.6846 78.7927 56.6511 78.7969C56.6177 78.801 56.5926 78.801 56.5758 78.7969C56.4712 78.7927 56.3918 78.7592 56.3374 78.6965C56.283 78.6337 56.2537 78.5668 56.2495 78.4957L56.2433 78.2573C56.0969 78.4455 55.9065 78.5919 55.6723 78.6965C55.438 78.7969 55.1996 78.8471 54.957 78.8471C54.7478 78.8471 54.5575 78.8031 54.386 78.7153C54.2187 78.6233 54.0869 78.502 53.9907 78.3514C53.8987 78.1966 53.8527 78.0272 53.8527 77.8431ZM56.0425 78.0941C56.0885 78.0356 56.1241 77.9791 56.1492 77.9247C56.1743 77.8703 56.1868 77.8222 56.1868 77.7804V77.3035C56.0446 77.2492 55.8961 77.2073 55.7413 77.178C55.5907 77.1488 55.438 77.1341 55.2833 77.1341C54.9779 77.1341 54.7311 77.1948 54.5429 77.3161C54.3546 77.4374 54.2605 77.6026 54.2605 77.8118C54.2605 77.9331 54.2919 78.0481 54.3546 78.1569C54.4174 78.2614 54.5094 78.3493 54.6307 78.4204C54.752 78.4873 54.8943 78.5208 55.0574 78.5208C55.2624 78.5208 55.4527 78.481 55.6284 78.4016C55.8082 78.3221 55.9463 78.2196 56.0425 78.0941ZM59.1534 74.2039H59.5801V78.0439C59.5801 78.2071 59.6094 78.3137 59.6679 78.3639C59.7265 78.4141 59.7976 78.4392 59.8813 78.4392C59.9566 78.4392 60.0319 78.4309 60.1071 78.4141C60.1824 78.3974 60.2473 78.3807 60.3017 78.3639L60.377 78.709C60.2975 78.7425 60.1992 78.7697 60.082 78.7906C59.9691 78.8115 59.8708 78.822 59.7871 78.822C59.5947 78.822 59.44 78.7655 59.3228 78.6526C59.2099 78.5396 59.1534 78.3848 59.1534 78.1882V74.2039ZM60.8442 78.7843V75.5153H61.2708V78.7843H60.8442ZM61.2018 74.8941L60.9194 74.7875L61.2896 74.2039H61.7414L61.2018 74.8941ZM64.9588 78.7843H64.5321V76.9584C64.5321 76.5736 64.4757 76.2933 64.3627 76.1177C64.2498 75.9378 64.072 75.8478 63.8294 75.8478C63.6621 75.8478 63.4969 75.8897 63.3337 75.9733C63.1706 76.0528 63.0263 76.1637 62.9008 76.3059C62.7795 76.4439 62.6916 76.6029 62.6372 76.7827V78.7843H62.2106V75.5153H62.5996V76.2557C62.6874 76.0967 62.8025 75.9587 62.9447 75.8416C63.0869 75.7203 63.248 75.6261 63.4278 75.5592C63.6077 75.4923 63.7938 75.4588 63.9863 75.4588C64.1661 75.4588 64.3188 75.4923 64.4443 75.5592C64.5698 75.6261 64.6702 75.7224 64.7455 75.8478C64.8208 75.9692 64.8752 76.1177 64.9086 76.2933C64.9421 76.4648 64.9588 76.6573 64.9588 76.8706V78.7843ZM67.2804 78.8471C67.0462 78.8471 66.8287 78.8031 66.6279 78.7153C66.4271 78.6233 66.2535 78.4999 66.1071 78.3451C65.9607 78.1861 65.8457 78.0042 65.762 77.7992C65.6825 77.5943 65.6428 77.3746 65.6428 77.1404C65.6428 76.835 65.7118 76.5548 65.8498 76.2996C65.9921 76.0444 66.1866 75.8416 66.4334 75.691C66.6802 75.5362 66.9604 75.4588 67.2742 75.4588C67.5962 75.4588 67.8765 75.5362 68.1149 75.691C68.3576 75.8458 68.5479 76.0507 68.6859 76.3059C68.824 76.5569 68.893 76.8329 68.893 77.1341C68.893 77.1676 68.893 77.201 68.893 77.2345C68.893 77.2638 68.8909 77.2868 68.8867 77.3035H66.0883C66.1092 77.5378 66.174 77.7469 66.2828 77.931C66.3957 78.1109 66.54 78.2552 66.7157 78.3639C66.8956 78.4685 67.0901 78.5208 67.2993 78.5208C67.5126 78.5208 67.7134 78.4664 67.9016 78.3577C68.094 78.2489 68.2279 78.1067 68.3032 77.931L68.6734 78.0314C68.6064 78.1861 68.504 78.3263 68.3659 78.4518C68.2279 78.5773 68.0647 78.6756 67.8765 78.7467C67.6925 78.8136 67.4938 78.8471 67.2804 78.8471ZM66.0757 76.9961H68.4914C68.4747 76.7577 68.4098 76.5485 68.2969 76.3686C68.1881 76.1888 68.0438 76.0486 67.864 75.9482C67.6883 75.8437 67.4938 75.7914 67.2804 75.7914C67.0671 75.7914 66.8726 75.8437 66.6969 75.9482C66.5212 76.0486 66.3769 76.1909 66.264 76.3749C66.1552 76.5548 66.0925 76.7618 66.0757 76.9961ZM69.2877 77.8431C69.2877 77.6382 69.3463 77.4625 69.4634 77.3161C69.5805 77.1655 69.7416 77.0505 69.9466 76.971C70.1557 76.8873 70.3962 76.8455 70.6681 76.8455C70.8271 76.8455 70.9923 76.858 71.1638 76.8831C71.3353 76.9082 71.488 76.9459 71.6218 76.9961V76.72C71.6218 76.4439 71.5403 76.2243 71.3771 76.0612C71.214 75.898 70.9881 75.8165 70.6995 75.8165C70.5238 75.8165 70.3502 75.8499 70.1787 75.9169C70.0114 75.9796 69.8357 76.0737 69.6517 76.1992L69.4885 75.898C69.7018 75.7516 69.911 75.6429 70.116 75.5718C70.3209 75.4965 70.5301 75.4588 70.7434 75.4588C71.145 75.4588 71.4629 75.5739 71.6971 75.8039C71.9314 76.034 72.0485 76.3519 72.0485 76.7577V78.2698C72.0485 78.3284 72.0611 78.3723 72.0862 78.4016C72.1113 78.4267 72.151 78.4413 72.2054 78.4455V78.7843C72.1594 78.7885 72.1196 78.7927 72.0862 78.7969C72.0527 78.801 72.0276 78.801 72.0109 78.7969C71.9063 78.7927 71.8268 78.7592 71.7724 78.6965C71.7181 78.6337 71.6888 78.5668 71.6846 78.4957L71.6783 78.2573C71.5319 78.4455 71.3416 78.5919 71.1073 78.6965C70.8731 78.7969 70.6347 78.8471 70.392 78.8471C70.1829 78.8471 69.9926 78.8031 69.8211 78.7153C69.6537 78.6233 69.522 78.502 69.4258 78.3514C69.3337 78.1966 69.2877 78.0272 69.2877 77.8431ZM71.4775 78.0941C71.5235 78.0356 71.5591 77.9791 71.5842 77.9247C71.6093 77.8703 71.6218 77.8222 71.6218 77.7804V77.3035C71.4796 77.2492 71.3311 77.2073 71.1764 77.178C71.0258 77.1488 70.8731 77.1341 70.7183 77.1341C70.413 77.1341 70.1662 77.1948 69.9779 77.3161C69.7897 77.4374 69.6956 77.6026 69.6956 77.8118C69.6956 77.9331 69.7269 78.0481 69.7897 78.1569C69.8524 78.2614 69.9445 78.3493 70.0658 78.4204C70.1871 78.4873 70.3293 78.5208 70.4924 78.5208C70.6974 78.5208 70.8877 78.481 71.0634 78.4016C71.2433 78.3221 71.3813 78.2196 71.4775 78.0941ZM72.9076 78.7843V78.1694H73.2778V78.7843H72.9076Z" fill="black"/>
<path d="M79.9947 70.902L8.01977e-06 71.6734L0.0161005 69.6471L79.9947 70.902Z" fill="#00FFF0"/>
</svg>
