<svg width="36" height="35" viewBox="0 0 36 35" fill="none" xmlns="http://www.w3.org/2000/svg">
<path d="M34.0506 28.8311C35.4366 30.1105 35.4366 32.3494 34.0506 33.6288C33.4109 34.2685 32.558 34.5883 31.705 34.5883C30.7455 34.5883 29.8926 34.2685 29.2529 33.6288L18.0584 22.4342L6.7572 33.6288C6.11751 34.2685 5.26459 34.5883 4.41167 34.5883C3.45214 34.5883 2.59922 34.2685 1.95953 33.6288C0.573541 32.3494 0.573541 30.1105 1.95953 28.8311L13.1541 17.53L1.95953 6.33542C0.573541 5.05604 0.573541 2.81713 1.95953 1.53775C3.23891 0.151762 5.47782 0.151762 6.7572 1.53775L18.0584 12.7323L29.2529 1.53775C30.5323 0.151762 32.7712 0.151762 34.0506 1.53775C35.4366 2.81713 35.4366 5.05604 34.0506 6.33542L22.856 17.6366L34.0506 28.8311Z" fill="#000E8A"/>
</svg>
