<svg width="35" height="32" viewBox="0 0 35 32" fill="none" xmlns="http://www.w3.org/2000/svg">
<path d="M1.24061 6.49799H33.4964C34.1167 6.49799 34.737 5.95523 34.737 5.25738V2.15586C34.737 1.53556 34.1167 0.915257 33.4964 0.915257H1.24061C0.542766 0.915257 0 1.53556 0 2.15586V5.25738C0 5.95523 0.542766 6.49799 1.24061 6.49799ZM1.24061 18.9041H33.4964C34.1167 18.9041 34.737 18.3613 34.737 17.6635V14.5619C34.737 13.9416 34.1167 13.3213 33.4964 13.3213H1.24061C0.542766 13.3213 0 13.9416 0 14.5619V17.6635C0 18.3613 0.542766 18.9041 1.24061 18.9041ZM1.24061 31.3102H33.4964C34.1167 31.3102 34.737 30.7674 34.737 30.0695V26.968C34.737 26.3477 34.1167 25.7274 33.4964 25.7274H1.24061C0.542766 25.7274 0 26.3477 0 26.968V30.0695C0 30.7674 0.542766 31.3102 1.24061 31.3102Z" fill="#000E8A"/>
</svg>
