<svg width="20" height="20" viewBox="0 0 20 20" fill="none" xmlns="http://www.w3.org/2000/svg">
<path d="M18.9629 14.7363L18.0723 18.4844C17.9609 19.041 17.5156 19.4121 16.959 19.4121C7.60742 19.375 0 11.7676 0 2.41602C0 1.85938 0.333984 1.41406 0.890625 1.30273L4.63867 0.412109C5.1582 0.300781 5.71484 0.597656 5.9375 1.08008L7.68164 5.125C7.86719 5.60742 7.75586 6.16406 7.34766 6.46094L5.34375 8.09375C6.60547 10.6543 8.68359 12.7324 11.2812 13.9941L12.9141 11.9902C13.2109 11.6191 13.7676 11.4707 14.25 11.6562L18.2949 13.4004C18.7773 13.6602 19.0742 14.2168 18.9629 14.7363Z" fill="black"/>
</svg>
