<svg width="31" height="32" viewBox="0 0 31 32" fill="none" xmlns="http://www.w3.org/2000/svg">
<path d="M26.25 0.5625C28.6426 0.5625 30.625 2.54492 30.625 4.9375V26.8125C30.625 29.2734 28.6426 31.1875 26.25 31.1875H4.375C1.91406 31.1875 0 29.2734 0 26.8125V4.9375C0 2.54492 1.91406 0.5625 4.375 0.5625H26.25ZM23.1738 12.8672C23.9258 12.1152 23.9258 10.9531 23.1738 10.2012C22.4219 9.44922 21.2598 9.44922 20.5078 10.2012L13.125 17.584L10.0488 14.5762C9.29688 13.8242 8.13477 13.8242 7.38281 14.5762C6.63086 15.3281 6.63086 16.4902 7.38281 17.2422L11.7578 21.6172C12.5098 22.3691 13.6719 22.3691 14.4238 21.6172L23.1738 12.8672Z" fill="white"/>
</svg>
