<svg width="120" height="120" viewBox="0 0 120 120" fill="none" xmlns="http://www.w3.org/2000/svg">
<rect y="60" width="84.8528" height="84.8528" transform="rotate(-45 0 60)" fill="#000E8A"/>
<rect x="11.6339" y="59.6339" width="67.8822" height="67.8822" transform="rotate(-45 11.6339 59.6339)" fill="#D9D9D9"/>
<mask id="path-3-outside-1_321_1166" maskUnits="userSpaceOnUse" x="35.5341" y="47.2096" width="60.8112" height="60.8112" fill="black">
<rect fill="white" x="35.5341" y="47.2096" width="60.8112" height="60.8112"/>
<path d="M36.2412 83.2721L72.2412 47.2721L96.2412 71.2721L60.2412 107.272L36.2412 83.2721Z"/>
</mask>
<path d="M36.2412 83.2721L72.2412 47.2721L96.2412 71.2721L60.2412 107.272L36.2412 83.2721Z" fill="#222222"/>
<path d="M60.8412 106.672L36.8412 82.6721L35.6412 83.8721L59.6412 107.872L60.8412 106.672Z" fill="#222222" mask="url(#path-3-outside-1_321_1166)"/>
<path d="M71.5675 55.4265C71.5675 56.5879 72.4708 57.4912 73.6321 57.4912C74.729 57.4912 75.6968 56.5879 75.6968 55.4265C75.6968 54.3296 73.6321 51.2971 73.6321 51.2971C73.6321 51.2971 71.5675 54.3296 71.5675 55.4265ZM67.4381 36.8443H64.9217C63.8894 36.0055 62.599 35.3603 61.244 35.0377V32.0052L59.1793 31.7471L57.1146 32.0052V35.0377C55.6952 35.3603 54.4047 36.0055 53.3724 36.8443H45.7588C45.1782 36.8443 44.7265 37.3605 44.7265 37.8766V44.0707C44.7265 44.6514 45.1782 45.1031 45.7588 45.1031H51.6948C53.0498 47.5549 55.8887 49.2324 59.1793 49.2324C62.4699 49.2324 65.2443 47.5549 66.5993 45.1031H67.4381C68.5349 45.1031 69.5028 46.0709 69.5028 47.1677C69.5028 48.3291 70.4061 49.2324 71.5675 49.2324H75.6968C76.7937 49.2324 77.7615 48.3291 77.7615 47.1677C77.7615 41.4899 73.116 36.8443 67.4381 36.8443ZM49.9527 30.6502L59.1793 29.6824L68.3414 30.6502C68.9221 30.7148 69.5028 30.2631 69.5028 29.6179V27.6177C69.5028 26.9725 68.9221 26.5209 68.3414 26.5854L61.244 27.2951V25.4885C61.244 24.9723 60.7278 24.4562 60.2117 24.4562H58.147C57.5663 24.4562 57.1146 24.9723 57.1146 25.4885V27.2951L49.9527 26.5854C49.3721 26.5209 48.8559 26.9725 48.8559 27.6177V29.6179C48.8559 30.2631 49.3721 30.7148 49.9527 30.6502Z" fill="#00FFF0"/>
<path d="M66.7882 65.0912C82.0617 77.6494 81.9203 77.9605 79.9404 76.5463" stroke="white" stroke-opacity="0.5" stroke-width="0.848528"/>
<path d="M60 74.425C75.2735 86.9832 75.1321 87.2943 73.1522 85.8801" stroke="white" stroke-opacity="0.5" stroke-width="0.848528"/>
<path d="M51.5147 86.3044C66.7882 98.8626 66.6468 99.1737 64.6669 97.7595" stroke="white" stroke-opacity="0.5" stroke-width="0.848528"/>
</svg>
