<svg width="120" height="120" viewBox="0 0 120 120" fill="none" xmlns="http://www.w3.org/2000/svg">
<rect y="60" width="84.8528" height="84.8528" transform="rotate(-45 0 60)" fill="#000E8A"/>
<rect x="11.6339" y="59.6339" width="67.8822" height="67.8823" transform="rotate(-45 11.6339 59.6339)" fill="black"/>
<path d="M68.7918 72.2142C68.7918 74.3411 68.6069 76.2831 68.4219 78.1325H51.3144C51.1294 76.2831 50.9445 74.3411 50.9445 72.2142C50.9445 70.1798 51.1294 68.2379 51.3144 66.296H68.4219C68.6069 68.2379 68.7918 70.1798 68.7918 72.2142ZM82.7553 66.296C83.3101 68.2379 83.5875 70.1798 83.5875 72.2142C83.5875 74.3411 83.3101 76.2831 82.7553 78.1325H71.3811C71.566 76.2831 71.751 74.2487 71.751 72.2142C71.751 70.1798 71.566 68.2379 71.3811 66.296H82.7553ZM81.8305 63.3368H71.0112C70.0864 57.511 68.237 52.5174 65.9251 49.3734C73.1381 51.3153 79.0563 56.4938 81.8305 63.3368ZM68.052 63.3368H51.6843C52.2391 60.0078 53.1638 57.0486 54.181 54.6443C55.1982 52.425 56.2155 50.8529 57.3251 49.8357C58.3423 48.911 59.1746 48.5411 59.9144 48.5411C60.5617 48.5411 61.394 48.911 62.4112 49.8357C63.5208 50.8529 64.538 52.425 65.5553 54.6443C66.5725 57.0486 67.4972 60.0078 68.052 63.3368ZM37.9057 63.3368C40.6799 56.4938 46.5982 51.3153 53.8111 49.3734C51.4993 52.5174 49.6499 57.511 48.7251 63.3368H37.9057ZM48.3552 66.296C48.1703 68.2379 47.9853 70.1798 47.9853 72.2142C47.9853 74.2487 48.1703 76.2831 48.3552 78.1325H36.981C36.4262 76.2831 36.2412 74.3411 36.2412 72.2142C36.2412 70.1798 36.4262 68.2379 36.981 66.296H48.3552ZM54.181 89.8766C53.1638 87.4723 52.2391 84.5132 51.6843 81.0917H68.052C67.4972 84.5132 66.5725 87.4723 65.5553 89.8766C64.538 92.096 63.5208 93.668 62.4112 94.6853C61.394 95.61 60.5617 95.8874 59.8219 95.8874C59.1746 95.8874 58.3423 95.61 57.3251 94.6853C56.2155 93.668 55.1982 92.096 54.181 89.8766ZM53.8111 95.1476C46.5982 93.2057 40.6799 88.0272 37.9057 81.0917H48.7251C49.6499 87.01 51.4993 92.0035 53.8111 95.1476ZM65.9251 95.1476C68.237 92.0035 70.0864 87.01 71.0112 81.0917H81.8305C79.0563 88.0272 73.1381 93.2057 65.9251 95.1476Z" fill="white"/>
<path d="M73.9553 35.9578L70.7848 32.7476L72.6871 30.8453C73.2023 30.3301 73.2023 29.4979 72.6871 28.9827L70.7848 27.0803C70.2696 26.5651 69.4373 26.5651 68.9221 27.0803L67.0198 28.9827L63.8493 25.8518C63.6115 25.614 63.2548 25.4555 62.9378 25.4555C62.6207 25.4555 62.264 25.614 62.0659 25.8518L58.2216 29.6564C57.7064 30.1716 57.7064 30.9642 58.2216 31.4794L61.3921 34.6499L60.9958 35.0463C58.8557 34.0555 56.3986 34.1347 54.3377 35.2444C53.9811 35.4426 53.9414 35.9181 54.2188 36.1956L58.499 40.4361L57.7857 41.1495C57.6668 41.1099 57.5875 41.0702 57.4686 41.0702C56.7553 41.0702 56.2004 41.6647 56.2004 42.3384C56.2004 43.0518 56.7553 43.6066 57.4686 43.6066C58.182 43.6066 58.7368 43.0518 58.7368 42.3384C58.7368 42.2195 58.6972 42.1403 58.6576 42.0214L59.3709 41.3477L63.6511 45.5882C63.8889 45.8656 64.3645 45.826 64.5626 45.4693C65.6723 43.4085 65.7516 40.9513 64.7608 38.8112L65.1571 38.4149L68.3276 41.5854C68.8428 42.1006 69.6355 42.1006 70.0714 41.5854L73.9156 37.7412C74.1931 37.543 74.3516 37.1864 74.3516 36.8693C74.3516 36.5523 74.1931 36.1956 73.9553 35.9578ZM62.7396 33.3025L60.005 30.5679L62.9378 27.6352L65.6723 30.3698L62.7396 33.3025ZM69.2391 39.802L66.5046 37.0675L69.4373 34.1347L72.1719 36.8693L69.2391 39.802Z" fill="#CCCCCC"/>
<path d="M42.8993 59.6961C40.8385 57.1201 36.2412 50.9772 36.2412 47.4897C36.2412 43.2887 39.6099 39.8804 43.8505 39.8804C48.0514 39.8804 51.4597 43.2887 51.4597 47.4897C51.4597 50.9772 46.8228 57.1201 44.762 59.6961C44.2864 60.2906 43.3749 60.2906 42.8993 59.6961ZM43.8505 50.0261C45.2376 50.0261 46.3869 48.9164 46.3869 47.4897C46.3869 46.1026 45.2376 44.9533 43.8505 44.9533C42.4237 44.9533 41.314 46.1026 41.314 47.4897C41.314 48.9164 42.4237 50.0261 43.8505 50.0261Z" fill="#00FFF0"/>
</svg>
