<svg width="120" height="120" viewBox="0 0 120 120" fill="none" xmlns="http://www.w3.org/2000/svg">
<rect y="60" width="84.8528" height="84.8528" transform="rotate(-45 0 60)" fill="#000E8A"/>
<rect x="11.6339" y="59.6339" width="67.8822" height="67.8822" transform="rotate(-45 11.6339 59.6339)" fill="white"/>
<path fill-rule="evenodd" clip-rule="evenodd" d="M69.8641 81.3927C69.8641 83.756 69.6586 85.9138 69.4531 87.9688H50.4441C50.2386 85.9138 50.0331 83.756 50.0331 81.3927C50.0331 79.1322 50.2386 76.9744 50.4441 74.8167L50.4441 74.8166H69.4531C69.6586 76.9744 69.8641 79.1322 69.8641 81.3927ZM85.3796 74.8166C85.9961 76.9744 86.3044 79.1322 86.3044 81.3927C86.3044 81.5052 86.3037 81.6173 86.3023 81.729L80.0625 87.9688H72.7412C72.9467 85.9138 73.1522 83.6532 73.1522 81.3927C73.1522 79.1322 72.9467 76.9744 72.7412 74.8166H85.3796ZM76.7744 91.2568H72.3302C72.0204 93.2395 71.6172 95.1289 71.1346 96.8966L76.7744 91.2568ZM65.5561 102.475C65.794 102.02 66.0309 101.535 66.2678 101.018C67.3981 98.3467 68.4256 95.0586 69.0421 91.2568H50.8551C51.4716 95.0586 52.4991 98.3467 53.6294 101.018C53.9201 101.652 54.2108 102.239 54.5033 102.78L59.3659 107.643C59.554 107.681 59.7311 107.697 59.8973 107.697C60.0507 107.697 60.2078 107.686 60.3691 107.662L65.5561 102.475ZM84.3521 71.5286H72.3302C71.3027 65.0552 69.2476 59.5066 66.6788 56.0131C74.6935 58.1709 81.2696 63.9249 84.3521 71.5286ZM69.0421 71.5286H50.8551C51.4716 67.8295 52.4991 64.5415 53.6294 61.8699C54.7597 59.4039 55.8899 57.6571 57.123 56.5268C58.2532 55.4993 59.178 55.0883 60 55.0883C60.7193 55.0883 61.644 55.4993 62.7743 56.5268C64.0073 57.6571 65.1376 59.4039 66.2678 61.8699C67.3981 64.5415 68.4256 67.8295 69.0421 71.5286ZM35.5452 71.5286C38.6277 63.9249 45.2038 58.1709 53.2184 56.0131C50.6496 59.5066 48.5946 65.0552 47.5671 71.5286H35.5452ZM47.1561 74.8166C46.9506 76.9744 46.7451 79.1322 46.7451 81.3927C46.7451 83.6532 46.9506 85.9138 47.1561 87.9688H39.692L33.7 81.9767C33.697 81.7834 33.6956 81.5888 33.6956 81.3927C33.6956 79.1322 33.9011 76.9744 34.5176 74.8166H47.1561ZM42.9801 91.2568L48.8168 97.0936C48.3102 95.2694 47.8884 93.3134 47.5671 91.2568H42.9801Z" fill="#666666"/>
<path d="M56.0225 35.9673C56.0225 33.7797 57.7627 31.9899 60 31.9899C62.1876 31.9899 63.9775 33.7797 63.9775 35.9673C63.9775 38.2047 62.1876 39.9448 60 39.9448C57.7627 39.9448 56.0225 38.2047 56.0225 35.9673ZM60 23.2394C60.8452 23.2394 61.591 23.9852 61.591 24.8304V26.5706C65.5685 27.2666 68.7007 30.3989 69.3968 34.3764H71.1369C71.9821 34.3764 72.7279 35.1221 72.7279 35.9673C72.7279 36.8623 71.9821 37.5583 71.1369 37.5583H69.3968C68.7007 41.5855 65.5685 44.7178 61.591 45.4139V47.1043C61.591 47.9992 60.8452 48.6953 60 48.6953C59.1051 48.6953 58.409 47.9992 58.409 47.1043V45.4139C54.3818 44.7178 51.2496 41.5855 50.5535 37.5583H48.8631C47.9681 37.5583 47.2721 36.8623 47.2721 35.9673C47.2721 35.1221 47.9681 34.3764 48.8631 34.3764H50.5535C51.2496 30.3989 54.3818 27.2666 58.409 26.5706V24.8304C58.409 23.9852 59.1051 23.2394 60 23.2394ZM53.636 35.9673C53.636 39.4974 56.47 42.3313 60 42.3313C63.4803 42.3313 66.364 39.4974 66.364 35.9673C66.364 32.4871 63.4803 29.6034 60 29.6034C56.47 29.6034 53.636 32.4871 53.636 35.9673Z" fill="black"/>
</svg>
