<svg width="121" height="121" viewBox="0 0 121 121" fill="none" xmlns="http://www.w3.org/2000/svg">
<rect x="0.289322" y="60.2893" width="84.8528" height="84.8528" transform="rotate(-45 0.289322 60.2893)" fill="#000E8A"/>
<rect x="12.2893" y="60.2893" width="67.8823" height="67.8823" transform="rotate(-45 12.2893 60.2893)" fill="white"/>
<rect x="36.5305" y="84.3496" width="42.4264" height="33.9411" transform="rotate(-45 36.5305 84.3496)" fill="#222222"/>
<rect x="51.804" y="21.257" width="16.9706" height="25.4558" fill="#FAFF00"/>
<ellipse cx="60.2893" cy="33.985" rx="5.09117" ry="5.09117" fill="black"/>
<rect x="47.5614" y="29.7423" width="4.24264" height="8.48528" fill="#666666"/>
<rect x="68.7746" y="29.7423" width="4.24264" height="8.48528" fill="#666666"/>
<rect x="47.5614" y="46.7129" width="25.4558" height="4.24264" fill="#CCCCCC"/>
<ellipse cx="60.2893" cy="33.985" rx="3.39411" ry="3.39411" fill="#D9D9D9"/>
<rect x="28.0452" y="70.7129" width="33.9411" height="4.24264" transform="rotate(-45 28.0452 70.7129)" fill="#CCCCCC"/>
<rect x="57.7437" y="80.654" width="33.9411" height="4.24264" transform="rotate(-90 57.7437 80.654)" fill="#CCCCCC"/>
<rect x="68.3805" y="46.7129" width="33.9411" height="4.24264" transform="rotate(45 68.3805 46.7129)" fill="#CCCCCC"/>
</svg>
