<svg width="120" height="120" viewBox="0 0 120 120" fill="none" xmlns="http://www.w3.org/2000/svg">
<rect y="60" width="84.8528" height="84.8528" transform="rotate(-45 0 60)" fill="#000E8A"/>
<rect x="11.6339" y="59.6339" width="67.8822" height="67.8823" transform="rotate(-45 11.6339 59.6339)" fill="#CCCCCC"/>
<path fill-rule="evenodd" clip-rule="evenodd" d="M95.1655 68.0605C95.1655 65.6795 93.1508 63.6648 90.7698 63.6648H64.3957C61.9231 63.6648 60 65.6795 60 68.0605V106.156C60 106.651 60.0769 107.123 60.2197 107.563L77.7434 90.0389H76.1175C75.2933 90.0389 74.6523 89.3979 74.6523 88.5737V85.6432C74.6523 84.9106 75.2933 84.178 76.1175 84.178H79.048C79.7806 84.178 80.5132 84.9106 80.5132 85.6432V87.2691L95.1655 72.6169V68.0605ZM67.3261 90.0389C66.5019 90.0389 65.8609 89.3979 65.8609 88.5737V85.6432C65.8609 84.9106 66.5019 84.178 67.3261 84.178H70.2566C70.9892 84.178 71.7218 84.9106 71.7218 85.6432V88.5737C71.7218 89.3979 70.9892 90.0389 70.2566 90.0389H67.3261ZM65.8609 73.9214C65.8609 73.1888 66.5019 72.4562 67.3261 72.4562H70.2566C70.9892 72.4562 71.7218 73.1888 71.7218 73.9214V76.8518C71.7218 77.676 70.9892 78.3171 70.2566 78.3171H67.3261C66.5019 78.3171 65.8609 77.676 65.8609 76.8518V73.9214ZM76.1175 78.3171C75.2933 78.3171 74.6523 77.676 74.6523 76.8518V73.9214C74.6523 73.1888 75.2933 72.4562 76.1175 72.4562H79.048C79.7806 72.4562 80.5132 73.1888 80.5132 73.9214V76.8518C80.5132 77.676 79.7806 78.3171 79.048 78.3171H76.1175ZM83.4436 73.9214C83.4436 73.1888 84.0847 72.4562 84.9089 72.4562H87.8393C88.5719 72.4562 89.3045 73.1888 89.3045 73.9214V76.8518C89.3045 77.676 88.5719 78.3171 87.8393 78.3171H84.9089C84.0847 78.3171 83.4436 77.676 83.4436 76.8518V73.9214Z" fill="black"/>
<path fill-rule="evenodd" clip-rule="evenodd" d="M35.4185 53.3527C34.9123 53.1629 34.3429 53.1629 33.8367 53.3527L19.6639 59.4267C18.7781 59.8063 18.272 60.7554 18.4618 61.7045C18.6516 62.6536 19.4741 63.2863 20.4232 63.2863V63.7924C20.4232 64.6782 21.1192 65.3109 21.9417 65.3109H47.2502C48.136 65.3109 48.7687 64.6782 48.7687 63.7924V63.2863C49.781 63.2863 50.6035 62.6536 50.7934 61.7045C50.9832 60.7554 50.477 59.8063 49.5912 59.4267L35.4185 53.3527ZM36.6839 59.2369C36.6839 60.3758 35.7348 61.2616 34.6592 61.2616C33.5203 61.2616 32.6345 60.3758 32.6345 59.2369C32.6345 58.1613 33.5203 57.2122 34.6592 57.2122C35.7348 57.2122 36.6839 58.1613 36.6839 59.2369ZM29.0281 77.5731L37.0127 85.5577H48.832C49.7177 85.5577 50.477 84.9883 50.7301 84.1658C50.9832 83.28 50.6668 82.3942 49.9076 81.888L46.8705 79.8633C46.8705 79.8 46.8073 79.8 46.8073 79.8V67.3356H42.7579V79.4837H40.2271V67.3356H36.1777V79.4837H33.0774V67.3356H29.0281V77.5731ZM22.4479 70.9929L26.4972 75.0423V67.3356H22.4479V70.9929Z" fill="black"/>
<path d="M54.6624 35.7639C54.5121 35.9086 54.3702 36.1189 54.3451 36.2241C54.3034 36.395 54.0279 36.4213 52.6422 36.4213C50.9893 36.4213 50.9893 36.4213 50.7305 36.7632C50.2213 37.4337 50.3298 38.7353 50.9309 39.1298C51.3566 39.4059 60.606 39.4059 61.0317 39.1298C61.6829 38.6959 61.758 37.197 61.157 36.6448C60.9566 36.4476 60.6227 36.4213 58.7194 36.4213C56.5824 36.4213 56.4989 36.4082 56.3486 36.1452C55.9563 35.4615 55.1632 35.2775 54.6624 35.7639Z" fill="black"/>
<path d="M69.7385 35.7113C69.6133 35.8165 69.4714 36.0137 69.4213 36.1584C69.3378 36.4082 69.2377 36.4213 67.0422 36.4213H64.7632L64.5044 36.7632C63.9952 37.4337 64.1038 38.7353 64.7048 39.1298C65.1222 39.4059 74.3799 39.4059 74.7973 39.1298C75.2898 38.8011 75.4902 37.9728 75.2564 37.1707C75.0644 36.5002 74.8307 36.4213 73.1194 36.4213C71.6168 36.4213 71.525 36.4082 71.3747 36.1452C71.0074 35.501 70.2227 35.2906 69.7385 35.7113Z" fill="black"/>
<path d="M54.2032 41.3781C54.1698 41.4175 54.1448 42.3905 54.1448 43.5343C54.1448 46.5058 54.1448 46.4926 55.9396 47.7285C56.4905 48.1098 56.9747 48.4648 57.0081 48.5174C57.0415 48.57 56.9413 48.9118 56.7827 49.2799C56.1065 50.8577 55.8477 53.1586 56.19 54.4602C56.2818 54.8152 56.8328 55.1044 57.1667 54.9467C57.6258 54.7494 57.7427 54.447 57.8345 53.2243C57.9264 51.9884 58.1684 51.0549 58.5775 50.3186L58.8613 49.819L59.7378 50.4501L60.6144 51.0812H62.8683H65.1222L65.9987 50.4501L66.8752 49.819L67.1507 50.3186C67.6182 51.1469 67.8436 51.9884 67.8937 53.0665C67.9521 54.263 68.1274 54.7626 68.5698 54.973C68.8453 55.0913 68.9455 55.0913 69.1959 54.8941C69.6384 54.5654 69.7886 53.9606 69.7218 52.8036C69.6467 51.423 69.438 50.4501 68.9538 49.2142L68.6784 48.5437L68.9455 48.3464C69.0957 48.2413 69.4547 47.9915 69.7552 47.7811C71.6084 46.4926 71.5917 46.532 71.5917 43.4949V41.2861H70.3813H69.1709V42.6008V43.9156L68.8036 44.2049L68.4363 44.481L67.6182 43.6921C66.0321 42.1933 65.1389 41.6805 63.6196 41.4044C62.885 41.2598 62.6345 41.2729 61.8248 41.4701C60.4307 41.812 59.8797 42.1538 58.0432 43.8236L57.3086 44.481L56.933 44.2049L56.5657 43.9156V42.6008V41.2861H55.4137C54.7792 41.2861 54.2283 41.3255 54.2032 41.3781Z" fill="#666666"/>
</svg>
