<svg width="120" height="120" viewBox="0 0 120 120" fill="none" xmlns="http://www.w3.org/2000/svg">
<rect y="60" width="84.8528" height="84.8528" transform="rotate(-45 0 60)" fill="#000E8A"/>
<rect x="11.6339" y="59.6339" width="67.8822" height="67.8822" transform="rotate(-45 11.6339 59.6339)" fill="#222222"/>
<path d="M53.1569 53.4253C53.9479 52.7002 55.2004 52.7002 55.9914 53.4253L69.7023 66.0815C70.1638 66.477 70.4274 67.0703 70.4274 67.5976H60.9352C59.6169 67.5976 58.4963 68.1909 57.7712 69.0478V66.5429C57.7712 66.0156 57.2438 65.4882 56.7165 65.4882H52.4977C51.9045 65.4882 51.4431 66.0156 51.4431 66.5429V70.7617C51.4431 71.3549 51.9045 71.8164 52.4977 71.8164H56.6506V80.2539H46.1696C44.3898 80.2539 43.0056 78.8696 43.0056 77.0898V69.707H40.8962C39.9733 69.707 39.1823 69.1797 38.9186 68.3886C38.5891 67.5976 38.7868 66.6748 39.446 66.0815L53.1569 53.4253ZM60.9352 69.707H75.7009C76.8215 69.707 77.8102 70.6958 77.8102 71.8164V82.3633H79.9196C80.447 82.3633 80.9743 82.8906 80.9743 83.4179C80.9743 85.1977 79.5241 86.582 77.8102 86.582H58.76C57.0461 86.582 55.5959 85.1977 55.5959 83.4179C55.5959 82.8906 56.1232 82.3633 56.6506 82.3633H58.76V71.8164C58.76 70.6958 59.7487 69.707 60.9352 69.707ZM61.9899 72.8711V82.3633H74.6462V72.8711H61.9899Z" fill="#F3F3F3"/>
<path d="M53.0381 21.5875L58.6243 19.4344C59.3226 19.1435 60.1954 19.1435 60.8937 19.4344L66.4799 21.5875C67.7601 22.053 68.6329 23.275 68.6329 24.6133V31.1306C68.6911 31.1888 68.7493 31.1888 68.8075 31.1888L74.3937 33.3418C75.6739 33.8073 76.5467 35.0293 76.5467 36.3676V43.2922C76.5467 44.6306 75.732 45.7944 74.5682 46.3181L68.982 48.762C68.1674 49.1112 67.1782 49.1112 66.3635 48.762L59.7881 45.8526L53.1545 48.762C52.3398 49.1112 51.3506 49.1112 50.5359 48.762L44.9497 46.3181C43.7859 45.7944 43.0294 44.6306 43.0294 43.2922V36.3676C43.0294 35.0293 43.8441 33.8073 45.1243 33.3418L50.7105 31.1888C50.7687 31.1888 50.8269 31.1888 50.9432 31.1306V24.6133C50.9432 23.275 51.7579 22.053 53.0381 21.5875ZM59.9045 22.053C59.8463 21.9948 59.6717 21.9948 59.6135 22.053L55.0165 23.7987L59.7299 25.6026L64.5014 23.7987L59.9045 22.053ZM65.8398 31.4797V26.2426L61.0101 28.1047V33.2836L65.8398 31.4797ZM51.9907 33.8073C51.9325 33.8073 51.7579 33.8073 51.6997 33.8073L47.1027 35.553L51.8743 37.3569L56.5876 35.553L51.9907 33.8073ZM53.0963 45.7362L57.926 43.6413V38.0551L53.0963 39.859V45.7362ZM62.9303 35.553L67.7019 37.3569L72.4152 35.553L67.8182 33.8073C67.7601 33.8073 67.5855 33.8073 67.5273 33.8073L62.9303 35.553ZM73.7536 43.2922V38.0551L68.9238 39.859V45.7362L73.4626 43.7577C73.6372 43.6413 73.7536 43.525 73.7536 43.2922Z" fill="#CCCCCC"/>
</svg>
