<svg width="120" height="120" viewBox="0 0 120 120" fill="none" xmlns="http://www.w3.org/2000/svg">
<rect y="60" width="84.8528" height="84.8528" transform="rotate(-45 0 60)" fill="#000E8A"/>
<rect x="11.6339" y="59.6339" width="67.8822" height="67.8822" transform="rotate(-45 11.6339 59.6339)" fill="white"/>
<path fill-rule="evenodd" clip-rule="evenodd" d="M69.8641 81.3927C69.8641 83.756 69.6586 85.9138 69.4531 87.9688H50.4441C50.2386 85.9138 50.0331 83.756 50.0331 81.3927C50.0331 79.1322 50.2386 76.9744 50.4441 74.8167L50.4441 74.8166H69.4531C69.6586 76.9744 69.8641 79.1322 69.8641 81.3927ZM85.3796 74.8166C85.9961 76.9744 86.3044 79.1322 86.3044 81.3927C86.3044 81.5052 86.3037 81.6173 86.3023 81.729L80.0625 87.9688H72.7412C72.9467 85.9138 73.1522 83.6532 73.1522 81.3927C73.1522 79.1322 72.9467 76.9744 72.7412 74.8166H85.3796ZM76.7744 91.2568H72.3302C72.0204 93.2395 71.6172 95.1289 71.1346 96.8966L76.7744 91.2568ZM65.5561 102.475C65.794 102.02 66.0309 101.535 66.2678 101.018C67.3981 98.3467 68.4256 95.0586 69.0421 91.2568H50.8551C51.4716 95.0586 52.4991 98.3467 53.6294 101.018C53.9201 101.652 54.2108 102.239 54.5033 102.78L59.3659 107.643C59.554 107.681 59.7311 107.697 59.8973 107.697C60.0507 107.697 60.2078 107.686 60.3691 107.662L65.5561 102.475ZM84.3521 71.5286H72.3302C71.3027 65.0552 69.2476 59.5066 66.6788 56.0131C74.6935 58.1709 81.2696 63.9249 84.3521 71.5286ZM69.0421 71.5286H50.8551C51.4716 67.8295 52.4991 64.5415 53.6294 61.8699C54.7597 59.4039 55.8899 57.6571 57.123 56.5268C58.2532 55.4993 59.178 55.0883 60 55.0883C60.7193 55.0883 61.644 55.4993 62.7743 56.5268C64.0073 57.6571 65.1376 59.4039 66.2678 61.8699C67.3981 64.5415 68.4256 67.8295 69.0421 71.5286ZM35.5452 71.5286C38.6277 63.9249 45.2038 58.1709 53.2184 56.0131C50.6496 59.5066 48.5946 65.0552 47.5671 71.5286H35.5452ZM47.1561 74.8166C46.9506 76.9744 46.7451 79.1322 46.7451 81.3927C46.7451 83.6532 46.9506 85.9138 47.1561 87.9688H39.692L33.7 81.9767C33.697 81.7834 33.6956 81.5888 33.6956 81.3927C33.6956 79.1322 33.9011 76.9744 34.5176 74.8166H47.1561ZM42.9801 91.2568L48.8168 97.0936C48.3102 95.2694 47.8884 93.3134 47.5671 91.2568H42.9801Z" fill="#666666"/>
<path d="M80.9587 42.9015L76.9812 38.8743L79.3677 36.4878C80.014 35.8415 80.014 34.7974 79.3677 34.1511L76.9812 31.7646C76.3348 31.1183 75.2908 31.1183 74.6444 31.7646L72.2579 34.1511L68.2805 30.2233C67.9821 29.925 67.5347 29.7261 67.1369 29.7261C66.7392 29.7261 66.2917 29.925 66.0431 30.2233L61.2204 34.9963C60.5741 35.6426 60.5741 36.637 61.2204 37.2833L65.1979 41.2608L64.7007 41.758C62.0159 40.515 58.9334 40.6145 56.348 42.0066C55.9006 42.2552 55.8508 42.8518 56.1989 43.1998L61.5685 48.5197L60.6735 49.4146C60.5244 49.3649 60.4249 49.3152 60.2758 49.3152C59.3809 49.3152 58.6848 50.061 58.6848 50.9062C58.6848 51.8011 59.3809 52.4972 60.2758 52.4972C61.1707 52.4972 61.8668 51.8011 61.8668 50.9062C61.8668 50.757 61.8171 50.6576 61.7673 50.5084L62.6623 49.6632L68.0319 54.9831C68.3302 55.3311 68.9268 55.2814 69.1754 54.834C70.5675 52.2486 70.6669 49.166 69.424 46.4813L69.9212 45.9841L73.8986 49.9615C74.545 50.6079 75.5394 50.6079 76.0863 49.9615L80.9089 45.1389C81.257 44.8903 81.4558 44.4428 81.4558 44.045C81.4558 43.6473 81.257 43.1998 80.9587 42.9015ZM66.8883 39.5704L63.4578 36.1398L67.1369 32.4606L70.5675 35.8912L66.8883 39.5704ZM75.0422 47.7242L71.6116 44.2936L75.2908 40.6145L78.7213 44.045L75.0422 47.7242Z" fill="black"/>
</svg>
