<svg width="120" height="120" viewBox="0 0 120 120" fill="none" xmlns="http://www.w3.org/2000/svg">
<rect y="60" width="84.8528" height="84.8528" transform="rotate(-45 0 60)" fill="#000E8A"/>
<rect x="11.6339" y="59.6339" width="67.8822" height="67.8822" transform="rotate(-45 11.6339 59.6339)" fill="#CCCCCC"/>
<mask id="path-3-outside-1_315_1189" maskUnits="userSpaceOnUse" x="35.5341" y="52.9871" width="55.1543" height="55.1543" fill="black">
<rect fill="white" x="35.5341" y="52.9871" width="55.1543" height="55.1543"/>
<path d="M36.2412 83.3927L66.2412 53.3927L90.2412 77.3927L60.2412 107.393L36.2412 83.3927Z"/>
</mask>
<path d="M36.2412 83.3927L66.2412 53.3927L90.2412 77.3927L60.2412 107.393L36.2412 83.3927Z" fill="black"/>
<path d="M60.9483 106.686L36.9483 82.6856L35.5341 84.0998L59.5341 108.1L60.9483 106.686Z" fill="black" mask="url(#path-3-outside-1_315_1189)"/>
<path d="M37.8724 38.6008L37.8724 38.6009C37.7849 38.6851 37.6996 38.7887 37.6326 38.8866C37.5652 38.985 37.5176 39.0757 37.5037 39.1342L37.5037 39.1343C37.49 39.1904 37.4565 39.2343 37.3893 39.2677C37.3234 39.3005 37.2245 39.3235 37.0783 39.34C36.7856 39.3731 36.295 39.3808 35.4788 39.3808C34.5037 39.3808 34.019 39.3809 33.7395 39.4309C33.6006 39.4557 33.5142 39.4926 33.4439 39.5469C33.3729 39.6017 33.3173 39.6751 33.2406 39.7763L33.2406 39.7764C32.9441 40.1668 32.8264 40.7429 32.8717 41.2802C32.917 41.818 33.1248 42.3109 33.4721 42.5388L33.462 42.5542L33.472 42.5387C33.4852 42.5472 33.5087 42.5565 33.5437 42.5659C33.5782 42.5752 33.6224 42.5843 33.6758 42.5932C33.7827 42.6109 33.9252 42.6273 34.0986 42.6426C34.4452 42.673 34.9137 42.6984 35.4638 42.7188C36.5638 42.7594 37.9888 42.7798 39.414 42.7798C40.8391 42.7798 42.2641 42.7594 43.3642 42.7188C43.9142 42.6984 44.3828 42.673 44.7294 42.6426C44.9027 42.6273 45.0452 42.6109 45.1521 42.5932C45.2055 42.5843 45.2497 42.5752 45.2843 42.5659C45.3192 42.5565 45.3426 42.5473 45.3558 42.5388C45.7322 42.2879 45.9453 41.7258 45.9747 41.1413C46.004 40.557 45.8494 39.9594 45.501 39.6393L45.501 39.6393L45.5005 39.6389C45.3872 39.5274 45.2354 39.462 44.8281 39.4253C44.4209 39.3886 43.7627 39.3808 42.6408 39.3808C41.3822 39.3808 40.7265 39.377 40.3636 39.3342C40.1821 39.3128 40.0712 39.2814 39.9943 39.2343C39.9166 39.1867 39.8753 39.1241 39.8308 39.0461C39.6019 38.6473 39.2567 38.3951 38.897 38.3131C38.5376 38.2312 38.1629 38.3188 37.8724 38.6008Z" fill="#666666" stroke="#666666" stroke-width="0.0370087"/>
<path d="M55.627 38.5256C55.4794 38.6495 55.3122 38.882 55.2532 39.0524C55.1548 39.3468 55.0367 39.3623 52.4493 39.3623H49.7635L49.4586 39.7652C48.8584 40.5554 48.9863 42.0894 49.6947 42.5542C50.1866 42.8796 61.0969 42.8796 61.5888 42.5542C62.1693 42.1669 62.4054 41.1907 62.1299 40.2455C61.9036 39.4553 61.6282 39.3623 59.6114 39.3623C57.8405 39.3623 57.7323 39.3468 57.5552 39.0369C57.1224 38.2777 56.1976 38.0297 55.627 38.5256Z" fill="#666666"/>
<path d="M37.3185 45.2039C37.2791 45.2504 37.2496 46.397 37.2496 47.745C37.2496 51.2469 37.2496 51.2314 39.3648 52.6879C40.0141 53.1372 40.5847 53.5556 40.624 53.6176C40.6634 53.6796 40.5453 54.0824 40.3584 54.5163C39.5615 56.3757 39.2566 59.0873 39.6599 60.6213C39.7681 61.0396 40.4174 61.3805 40.811 61.1946C41.3521 60.9622 41.4898 60.6058 41.598 59.1648C41.7062 57.7082 41.9915 56.6081 42.4736 55.7404L42.8081 55.1516L43.8411 55.8953L44.8741 56.6391H47.5303H50.1866L51.2196 55.8953L52.2526 55.1516L52.5772 55.7404C53.1281 56.7166 53.3938 57.7082 53.4528 58.9788C53.5217 60.3888 53.7283 60.9777 54.2497 61.2256C54.5743 61.365 54.6924 61.365 54.9875 61.1326C55.5089 60.7452 55.686 60.0325 55.6073 58.6689C55.5188 57.042 55.2728 55.8953 54.7022 54.4388L54.3776 53.6486L54.6924 53.4162C54.8695 53.2922 55.2925 52.9978 55.6467 52.7499C57.8307 51.2314 57.811 51.2779 57.811 47.6986V45.0954H56.3845H54.958V46.6449V48.1944L54.5251 48.5353L54.0923 48.8607L53.1281 47.931C51.2589 46.1646 50.2063 45.5603 48.4157 45.2349C47.55 45.0644 47.2549 45.0799 46.3006 45.3123C44.6576 45.7152 44.0083 46.1181 41.844 48.0859L40.9782 48.8607L40.5355 48.5353L40.1026 48.1944V46.6449V45.0954H38.745C37.9973 45.0954 37.348 45.1419 37.3185 45.2039Z" fill="#666666"/>
<path d="M54.9088 75.2735C60 82.7405 67.7782 89.1328 71.0309 91.3955" stroke="#F3F3F3"/>
<path d="M48.1206 82.0617C53.2118 89.5288 60.9899 95.921 64.2426 98.1837" stroke="#F3F3F3"/>
<path d="M62.5456 66.7882C67.6368 74.2553 75.4149 80.6475 78.6676 82.9102" stroke="#F3F3F3"/>
</svg>
