<svg width="120" height="120" viewBox="0 0 120 120" fill="none" xmlns="http://www.w3.org/2000/svg">
<rect y="60" width="84.8528" height="84.8528" transform="rotate(-45 0 60)" fill="#000E8A"/>
<rect x="11.6339" y="59.6339" width="67.8822" height="67.8823" transform="rotate(-45 11.6339 59.6339)" fill="#CCCCCC"/>
<path fill-rule="evenodd" clip-rule="evenodd" d="M81.0147 86.1427C81.0147 86.5688 81.0018 86.9918 80.9766 87.4113L61.5938 106.794C61.1741 106.819 60.751 106.832 60.325 106.832C59.97 106.832 59.6172 106.824 59.2668 106.806L39.6616 87.2009C39.6442 86.8504 39.6353 86.4976 39.6353 86.1427C39.6353 74.7472 48.8487 65.453 60.325 65.453C71.7205 65.453 81.0147 74.7472 81.0147 86.1427ZM44.242 81.0511L45.0502 82.425C45.6968 83.5565 46.7474 84.4455 48.1213 84.8496L52.728 86.1427C54.1828 86.5468 55.1526 87.8399 55.1526 89.2946V92.5274C55.1526 93.4164 55.6375 94.2246 56.4457 94.5478C57.1731 94.9519 57.7388 95.7601 57.7388 96.6491V99.8011C57.7388 101.094 58.8703 101.983 60.0825 101.66C61.4565 101.256 62.4263 100.205 62.7496 98.9121L62.992 98.0231C63.3153 96.6491 64.2043 95.5177 65.4166 94.7903L66.0631 94.3862C67.2754 93.7396 68.0836 92.4465 68.0836 91.0726V90.3452C68.0836 89.3754 67.5987 88.3248 66.8713 87.5974L66.6289 87.3549C65.9015 86.6276 64.8509 86.1427 63.881 86.1427H60.325C59.436 86.1427 58.547 85.981 57.8196 85.4961L54.9909 83.8797C54.6677 83.7181 54.4252 83.3948 54.2636 82.9907C54.0211 82.2634 54.3444 81.3743 55.0718 81.0511L55.5567 80.8086C56.1224 80.4853 56.6881 80.4853 57.2539 80.647L59.1935 81.2935C59.8401 81.536 60.5675 81.2127 60.9715 80.647C61.2948 80.0812 61.2948 79.3539 60.8099 78.7881L59.7593 77.495C58.9511 76.5252 58.9511 75.1513 59.7593 74.1815L61.0524 72.7267C61.7797 71.8377 61.8606 70.7062 61.2948 69.7364L61.1332 69.4131C60.9599 69.4131 60.8099 69.3899 60.6706 69.3684C60.55 69.3497 60.4375 69.3323 60.325 69.3323C52.8088 69.3323 46.4241 74.2623 44.242 81.0511ZM74.9532 77.9799L72.9328 78.7881C71.6397 79.3539 70.9931 80.7278 71.3972 82.0209L72.7711 86.1427C73.0136 86.9509 73.7409 87.5974 74.63 87.8399L76.9737 88.4056C77.0545 87.6782 77.1353 86.9509 77.1353 86.1427C77.1353 83.2332 76.3272 80.4045 74.9532 77.9799Z" fill="black"/>
<path d="M86.9631 51.8514V54.1039C86.9631 56.2156 82.2234 57.8581 76.4514 57.8581C70.6324 57.8581 65.9397 56.2156 65.9397 54.1039V51.8514C65.9397 49.7866 70.6324 48.0972 76.4514 48.0972C82.2234 48.0972 86.9631 49.7866 86.9631 51.8514ZM84.3821 58.1866C85.3206 57.8581 86.2592 57.3888 86.9631 56.8726V61.6123C86.9631 63.724 82.2234 65.3664 76.4514 65.3664C70.6324 65.3664 65.9397 63.724 65.9397 61.6123V56.8726C66.5967 57.3888 67.5352 57.8581 68.4738 58.1866C70.5855 58.9374 73.4011 59.3598 76.4514 59.3598C79.4547 59.3598 82.2704 58.9374 84.3821 58.1866ZM68.4738 65.6949C70.5855 66.4458 73.4011 66.8681 76.4514 66.8681C79.4547 66.8681 82.2704 66.4458 84.3821 65.6949C85.3206 65.3664 86.2592 64.8972 86.9631 64.381V68.3698C86.9631 70.4815 82.2234 72.1239 76.4514 72.1239C70.6324 72.1239 65.9397 70.4815 65.9397 68.3698V64.381C66.5967 64.8972 67.5352 65.3664 68.4738 65.6949Z" fill="#005264"/>
<path d="M65.6677 27.9811C65.6677 30.8041 61.8696 35.7827 60.2271 37.8358C59.8678 38.3491 59.0979 38.3491 58.7387 37.8358C57.0962 35.7827 53.3494 30.8041 53.3494 27.9811C53.3494 24.5936 56.0697 21.8219 59.5086 21.8219C62.8961 21.8219 65.6677 24.5936 65.6677 27.9811ZM59.5086 29.6236C60.6377 29.6236 61.5616 28.751 61.5616 27.5705C61.5616 26.4413 60.6377 25.5174 59.5086 25.5174C58.328 25.5174 57.4555 26.4413 57.4555 27.5705C57.4555 28.751 58.328 29.6236 59.5086 29.6236ZM66.5403 31.0607C66.5916 31.0094 66.5916 30.958 66.6429 30.9067L72.5968 28.4944C73.3667 28.1864 74.2906 28.751 74.2906 29.6236V43.5331C74.2906 44.0463 73.9826 44.5083 73.4694 44.7136L66.0784 47.6392V32.1386C66.2323 31.7793 66.3863 31.42 66.5403 31.0607ZM52.4255 31.0607C52.5795 31.42 52.7334 31.7793 52.9388 32.1386V45.0215L46.369 47.6392C45.5991 47.9471 44.7265 47.3826 44.7265 46.51V32.6005C44.7265 32.0872 44.9831 31.6253 45.4964 31.4713L51.7582 28.9563C51.9122 29.6749 52.1175 30.3935 52.4255 31.0607ZM61.5103 38.8623C62.2289 37.9898 63.358 36.5526 64.4359 34.9102V47.7418L54.5812 44.9189V34.9102C55.6077 36.5526 56.7369 37.9898 57.4555 38.8623C58.482 40.1968 60.4838 40.1968 61.5103 38.8623Z" fill="white"/>
</svg>
