<svg width="120" height="120" viewBox="0 0 120 120" fill="none" xmlns="http://www.w3.org/2000/svg">
<rect y="60" width="84.8528" height="84.8528" transform="rotate(-45 0 60)" fill="#000E8A"/>
<rect x="11.6339" y="59.6339" width="67.8822" height="67.8823" transform="rotate(-45 11.6339 59.6339)" fill="white"/>
<path fill-rule="evenodd" clip-rule="evenodd" d="M78.1668 63.4928C78.1668 58.6536 82.0162 54.6942 86.9654 54.6942C91.8047 54.6942 95.764 58.6536 95.764 63.4928C95.764 68.4421 91.8047 72.2915 86.9654 72.2915C82.0162 72.2915 78.1668 68.4421 78.1668 63.4928ZM60.0711 107.627L37.0069 84.5628L50.1212 63.7128C50.7811 62.503 52.1009 61.7331 53.5307 61.7331C54.8504 61.7331 56.1702 62.503 56.8301 63.7128L70.688 85.7094L75.9671 77.0207C76.4071 76.3608 77.2869 75.8109 78.1668 75.8109C78.9367 75.8109 79.8165 76.3608 80.2565 77.0207L84.1979 83.5003L60.0711 107.627Z" fill="#666666"/>
<path d="M67.6796 33.3471C67.6796 37.0132 62.747 43.4788 60.614 46.1451C60.1474 46.8116 59.1476 46.8116 58.681 46.1451C56.548 43.4788 51.6821 37.0132 51.6821 33.3471C51.6821 28.9478 55.2149 25.3483 59.6808 25.3483C64.0802 25.3483 67.6796 28.9478 67.6796 33.3471ZM59.6808 35.4801C61.1473 35.4801 62.3471 34.3469 62.3471 32.8138C62.3471 31.3474 61.1473 30.1476 59.6808 30.1476C58.1478 30.1476 57.0146 31.3474 57.0146 32.8138C57.0146 34.3469 58.1478 35.4801 59.6808 35.4801ZM68.8127 37.3465C68.8794 37.2798 68.8794 37.2132 68.9461 37.1465L76.6782 34.0137C77.678 33.6137 78.8778 34.3469 78.8778 35.4801V53.5439C78.8778 54.2105 78.4779 54.8104 77.8113 55.077L68.2128 58.8764V38.7462C68.4128 38.2796 68.6128 37.8131 68.8127 37.3465ZM50.4823 37.3465C50.6823 37.8131 50.8822 38.2796 51.1488 38.7462V55.477L42.6169 58.8764C41.617 59.2764 40.4839 58.5431 40.4839 57.41V39.3461C40.4839 38.6796 40.8171 38.0797 41.4837 37.8797L49.6158 34.6136C49.8157 35.5467 50.0824 36.4799 50.4823 37.3465ZM62.2804 47.4782C63.2136 46.3451 64.6801 44.4787 66.0798 42.3457V59.0097L53.2818 55.3436V42.3457C54.615 44.4787 56.0814 46.3451 57.0146 47.4782C58.3477 49.2113 60.9473 49.2113 62.2804 47.4782Z" fill="black"/>
</svg>
