<svg width="120" height="120" viewBox="0 0 120 120" fill="none" xmlns="http://www.w3.org/2000/svg">
<rect y="60" width="84.8528" height="84.8528" transform="rotate(-45 0 60)" fill="#000E8A"/>
<rect x="11.6339" y="59.6339" width="67.8822" height="67.8822" transform="rotate(-45 11.6339 59.6339)" fill="#D9D9D9"/>
<path d="M81.2979 50.7295C81.2979 51.715 80.4767 52.4815 79.546 52.4815H77.7941L77.8488 61.2412C77.8488 63.2122 76.2611 64.7451 74.3449 64.7451H67.6656L65.5852 61.2412L69.965 57.5731C70.403 57.2446 70.403 56.5876 69.965 56.2044L63.5047 51.1675C62.6835 50.5105 61.6433 51.5508 62.2455 52.372L65.5852 56.8613L60.8768 60.8032C60.5483 61.077 60.4388 61.515 60.7126 61.8982L62.4098 64.7451H56.8254C54.8545 64.7451 53.3216 63.2122 53.3216 61.2412V52.4815H51.5696C50.5841 52.4815 49.8177 51.715 49.8177 50.7295C49.8177 50.2368 49.9819 49.7988 50.3651 49.4156L64.3807 37.2067C64.764 36.8235 65.2019 36.714 65.5852 36.714C65.9684 36.714 66.4064 36.8782 66.7349 37.1519L72.593 42.2435V40.2179C72.593 39.2871 73.3594 38.4659 74.3449 38.4659H76.0969C77.0276 38.4659 77.8488 39.2871 77.8488 40.2179V46.8424L80.6957 49.4156C81.1337 49.7988 81.3527 50.2368 81.2979 50.7295Z" fill="black"/>
<path d="M33.6956 78.6206V45.1275C33.6956 43.0341 35.3864 41.2629 37.5602 41.2629H45.2894C47.3827 41.2629 49.154 43.0341 49.154 45.1275V48.9921H42.713C41.9884 48.9921 41.4248 49.6362 41.4248 50.2802C41.4248 51.0049 41.9884 51.5684 42.713 51.5684H49.154V56.7212H42.713C41.9884 56.7212 41.4248 57.3653 41.4248 58.0094C41.4248 58.734 41.9884 59.2976 42.713 59.2976H49.154V64.4504H42.713C41.9884 64.4504 41.4248 65.0945 41.4248 65.7386C41.4248 66.4632 41.9884 67.0268 42.713 67.0268H49.154V73.4678C49.154 74.1924 49.7176 74.756 50.4422 74.756C51.0863 74.756 51.7304 74.1924 51.7304 73.4678V67.0268H56.8832V73.4678C56.8832 74.1924 57.4467 74.756 58.1714 74.756C58.8155 74.756 59.4596 74.1924 59.4596 73.4678V67.0268H64.6123V73.4678C64.6123 74.1924 65.1759 74.756 65.9005 74.756C66.5446 74.756 67.1887 74.1924 67.1887 73.4678V67.0268H71.0533C73.1466 67.0268 74.9179 68.7981 74.9179 70.8914V78.6206C74.9179 80.7944 73.1466 82.4852 71.0533 82.4852H37.5602C35.5474 82.4852 33.8567 81.0359 33.6956 79.0231C33.6956 78.9426 33.6956 78.7816 33.6956 78.6206Z" fill="#005264"/>
</svg>
