<svg width="120" height="120" viewBox="0 0 120 120" fill="none" xmlns="http://www.w3.org/2000/svg">
<rect y="60" width="84.8528" height="84.8528" transform="rotate(-45 0 60)" fill="#000E8A"/>
<rect x="11.6339" y="59.6339" width="67.8822" height="67.8822" transform="rotate(-45 11.6339 59.6339)" fill="#666666"/>
<mask id="path-3-inside-1_310_1162" fill="white">
<path d="M11.6339 60.3015L41.6339 30.3015L71.6339 60.3015L41.6339 90.3015L11.6339 60.3015Z"/>
</mask>
<path d="M11.6339 60.3015L41.6339 30.3015L71.6339 60.3015L41.6339 90.3015L11.6339 60.3015Z" fill="black"/>
<path d="M71.6339 60.3015L75.1694 63.837L78.705 60.3015L75.1694 56.766L71.6339 60.3015ZM38.0984 33.837L68.0984 63.837L75.1694 56.766L45.1694 26.766L38.0984 33.837ZM68.0984 56.766L38.0984 86.766L45.1694 93.837L75.1694 63.837L68.0984 56.766Z" fill="#CCCCCC" mask="url(#path-3-inside-1_310_1162)"/>
<path d="M80.2321 65.9178C77.6467 62.6861 71.8794 54.9797 71.8794 50.6045C71.8794 45.3343 76.1055 41.0585 81.4253 41.0585C86.6955 41.0585 90.9713 45.3343 90.9713 50.6045C90.9713 54.9797 85.1542 62.6861 82.5689 65.9178C81.9722 66.6635 80.8287 66.6635 80.2321 65.9178ZM81.4253 53.7865C83.1655 53.7865 84.6073 52.3943 84.6073 50.6045C84.6073 48.8643 83.1655 47.4225 81.4253 47.4225C79.6355 47.4225 78.2434 48.8643 78.2434 50.6045C78.2434 52.3943 79.6355 53.7865 81.4253 53.7865Z" fill="#00FFF0"/>
</svg>
