<svg width="120" height="120" viewBox="0 0 120 120" fill="none" xmlns="http://www.w3.org/2000/svg">
<rect y="60" width="84.8528" height="84.8528" transform="rotate(-45 0 60)" fill="#000E8A"/>
<rect x="11.6339" y="59.6339" width="67.8822" height="67.8822" transform="rotate(-45 11.6339 59.6339)" fill="#CCCCCC"/>
<path d="M54.2186 60.4676C54.8346 59.903 55.8098 59.903 56.4257 60.4676L67.1016 70.3223C67.4609 70.6303 67.6662 71.0922 67.6662 71.5028H60.2752C59.2486 71.5028 58.3761 71.9648 57.8115 72.632V70.6816C57.8115 70.271 57.4009 69.8604 56.9903 69.8604H53.7054C53.2434 69.8604 52.8842 70.271 52.8842 70.6816V73.9665C52.8842 74.4285 53.2434 74.7877 53.7054 74.7877H56.9389V81.3575H48.778C47.3922 81.3575 46.3143 80.2797 46.3143 78.8939V73.1453H44.6719C43.9533 73.1453 43.3374 72.7347 43.1321 72.1188C42.8755 71.5028 43.0294 70.7843 43.5427 70.3223L54.2186 60.4676ZM60.2752 73.1453H71.7723C72.6449 73.1453 73.4148 73.9152 73.4148 74.7877V83H75.0572C75.4678 83 75.8785 83.4106 75.8785 83.8212C75.8785 85.207 74.7493 86.2849 73.4148 86.2849H58.5814C57.2469 86.2849 56.1177 85.207 56.1177 83.8212C56.1177 83.4106 56.5283 83 56.9389 83H58.5814V74.7877C58.5814 73.9152 59.3513 73.1453 60.2752 73.1453ZM61.0964 75.609V83H70.9511V75.609H61.0964Z" fill="black"/>
<path d="M65.3663 29.4587C66.7008 29.4587 67.83 30.5879 67.83 31.9224V41.4178C65.777 43.0602 64.5451 45.5752 64.5451 48.3469C64.5451 50.9132 65.5717 53.2229 67.2654 54.8653C66.8035 55.4299 66.1362 55.7379 65.3663 55.7379H60.439V51.6318C60.439 50.2973 59.3098 49.1681 57.9753 49.1681C56.5895 49.1681 55.5116 50.2973 55.5116 51.6318V55.7379H50.5843C49.1985 55.7379 48.1206 54.66 48.1206 53.2742V31.9224C48.1206 30.5879 49.1985 29.4587 50.5843 29.4587H65.3663ZM51.4055 43.4195C51.4055 43.8815 51.7648 44.2407 52.2267 44.2407H53.8692C54.2798 44.2407 54.6904 43.8815 54.6904 43.4195V41.7771C54.6904 41.3664 54.2798 40.9558 53.8692 40.9558H52.2267C51.7648 40.9558 51.4055 41.3664 51.4055 41.7771V43.4195ZM57.1541 40.9558C56.6922 40.9558 56.3329 41.3664 56.3329 41.7771V43.4195C56.3329 43.8815 56.6922 44.2407 57.1541 44.2407H58.7965C59.2072 44.2407 59.6178 43.8815 59.6178 43.4195V41.7771C59.6178 41.3664 59.2072 40.9558 58.7965 40.9558H57.1541ZM61.2602 43.4195C61.2602 43.8815 61.6195 44.2407 62.0814 44.2407H63.7239C64.1345 44.2407 64.5451 43.8815 64.5451 43.4195V41.7771C64.5451 41.3664 64.1345 40.9558 63.7239 40.9558H62.0814C61.6195 40.9558 61.2602 41.3664 61.2602 41.7771V43.4195ZM52.2267 34.386C51.7648 34.386 51.4055 34.7966 51.4055 35.2073V36.8497C51.4055 37.3116 51.7648 37.6709 52.2267 37.6709H53.8692C54.2798 37.6709 54.6904 37.3116 54.6904 36.8497V35.2073C54.6904 34.7966 54.2798 34.386 53.8692 34.386H52.2267ZM56.3329 36.8497C56.3329 37.3116 56.6922 37.6709 57.1541 37.6709H58.7965C59.2072 37.6709 59.6178 37.3116 59.6178 36.8497V35.2073C59.6178 34.7966 59.2072 34.386 58.7965 34.386H57.1541C56.6922 34.386 56.3329 34.7966 56.3329 35.2073V36.8497ZM62.0814 34.386C61.6195 34.386 61.2602 34.7966 61.2602 35.2073V36.8497C61.2602 37.3116 61.6195 37.6709 62.0814 37.6709H63.7239C64.1345 37.6709 64.5451 37.3116 64.5451 36.8497V35.2073C64.5451 34.7966 64.1345 34.386 63.7239 34.386H62.0814ZM80.9696 48.3469C80.9696 52.453 77.6334 55.7379 73.5786 55.7379C69.4725 55.7379 66.1876 52.453 66.1876 48.3469C66.1876 44.2921 69.4725 40.9558 73.5786 40.9558C77.6334 40.9558 80.9696 44.2921 80.9696 48.3469ZM75.837 46.1398L72.7574 49.2707L71.2689 47.7823C70.9609 47.4743 70.3964 47.4743 70.0884 47.7823C69.7804 48.0902 69.7804 48.6548 70.0884 48.9628L72.1415 51.0158C72.4494 51.3238 73.014 51.3238 73.322 51.0158L77.0175 47.3203C77.3254 47.0124 77.3254 46.4478 77.0175 46.1398C76.7095 45.8319 76.1449 45.8319 75.837 46.1398Z" fill="black"/>
</svg>
