<svg width="121" height="121" viewBox="0 0 121 121" fill="none" xmlns="http://www.w3.org/2000/svg">
<rect x="0.710693" y="60.7107" width="84.8528" height="84.8528" transform="rotate(-45 0.710693 60.7107)" fill="#000E8A"/>
<rect x="12.5901" y="60.5901" width="67.8822" height="67.8822" transform="rotate(-45 12.5901 60.5901)" fill="#F3F3F3"/>
<path d="M91.2171 57.9989C91.2171 53.0482 87.7682 48.8205 83.4293 47.0405L80.5368 52.1025V45.1492C80.5368 44.5929 80.0917 44.1479 79.5355 44.1479H74.3622C73.8059 44.1479 73.4165 44.5929 73.4165 45.1492V52.1025L70.4683 47.0405C66.1295 48.8205 62.7362 53.0482 62.7362 57.9989L62.6806 61.9484H91.1614L91.2171 57.9989ZM92.8859 64.2847C92.7746 63.951 92.4409 63.7285 92.1071 63.7285H61.8462C61.4568 63.7285 61.1231 63.951 61.0118 64.2847C60.8449 64.6185 60.9006 65.0079 61.1787 65.2304C61.3456 65.3973 64.9613 69.0686 76.921 69.0686C88.8808 69.0686 92.4965 65.3973 92.6634 65.2304C92.9971 65.0079 93.0528 64.6185 92.8859 64.2847Z" fill="black"/>
<path fill-rule="evenodd" clip-rule="evenodd" d="M90.7951 75.0787C90.7951 73.0584 89.0855 71.3489 87.0652 71.3489H64.686C62.588 71.3489 60.9562 73.0584 60.9562 75.0787V107.404C60.9562 107.764 61.0041 108.109 61.094 108.436L75.8016 93.728H74.6323C73.933 93.728 73.389 93.1841 73.389 92.4847V89.9982C73.389 89.3765 73.933 88.7549 74.6323 88.7549H77.1189C77.7405 88.7549 78.3622 89.3765 78.3622 89.9982V91.1675L90.7951 78.7346V75.0787ZM67.1726 93.728C66.4733 93.728 65.9293 93.1841 65.9293 92.4847V89.9982C65.9293 89.3765 66.4733 88.7549 67.1726 88.7549H69.6592C70.2808 88.7549 70.9025 89.3765 70.9025 89.9982V92.4847C70.9025 93.1841 70.2808 93.728 69.6592 93.728H67.1726ZM65.9293 80.0519C65.9293 79.4302 66.4733 78.8086 67.1726 78.8086H69.6592C70.2808 78.8086 70.9025 79.4302 70.9025 80.0519V82.5385C70.9025 83.2378 70.2808 83.7817 69.6592 83.7817H67.1726C66.4733 83.7817 65.9293 83.2378 65.9293 82.5385V80.0519ZM74.6323 83.7817C73.933 83.7817 73.389 83.2378 73.389 82.5385V80.0519C73.389 79.4302 73.933 78.8086 74.6323 78.8086H77.1189C77.7405 78.8086 78.3622 79.4302 78.3622 80.0519V82.5385C78.3622 83.2378 77.7405 83.7817 77.1189 83.7817H74.6323ZM80.8488 80.0519C80.8488 79.4302 81.3927 78.8086 82.092 78.8086H84.5786C85.2003 78.8086 85.8219 79.4302 85.8219 80.0519V82.5385C85.8219 83.2378 85.2003 83.7817 84.5786 83.7817H82.092C81.3927 83.7817 80.8488 83.2378 80.8488 82.5385V80.0519Z" fill="black"/>
<path d="M41.214 42.646C41.7702 42.9797 42.104 43.536 42.104 44.1479V48.153H47.0548C47.2217 47.4299 47.9448 46.818 48.7792 46.818H53.6744C55.1206 46.818 56.3444 48.0418 56.3444 49.488C56.3444 50.99 55.1206 52.1581 53.6744 52.1581H48.7792C47.9448 52.1581 47.2217 51.6019 47.0548 50.8231H42.104V54.8282C42.104 55.4957 41.7702 56.052 41.214 56.3858C40.7133 56.7195 40.0458 56.7195 39.4896 56.4414L28.8092 51.1012C28.1973 50.8231 27.8636 50.2112 27.8636 49.488C27.8636 48.8205 28.1973 48.2086 28.8092 47.9305L39.4896 42.5903C40.0458 42.3122 40.7133 42.3122 41.214 42.646ZM43.8841 56.6083C43.8841 55.6626 44.6628 54.8282 45.6641 54.8282H54.5644C55.51 54.8282 56.3444 55.6626 56.3444 56.6083V60.1684C56.3444 61.1696 55.51 61.9484 54.5644 61.9484H45.6641C44.6628 61.9484 43.8841 61.1696 43.8841 60.1684V56.6083ZM34.9838 63.7285C35.9295 63.7285 36.7638 64.5629 36.7638 65.5085V69.0686C36.7638 70.0699 35.9295 70.8487 34.9838 70.8487H29.6436C28.6424 70.8487 27.8636 70.0699 27.8636 69.0686V65.5085C27.8636 64.5629 28.6424 63.7285 29.6436 63.7285H34.9838ZM54.5644 63.7285C55.51 63.7285 56.3444 64.5629 56.3444 65.5085V69.0686C56.3444 70.0699 55.51 70.8487 54.5644 70.8487H40.324C39.3227 70.8487 38.5439 70.0699 38.5439 69.0686V65.5085C38.5439 64.5629 39.3227 63.7285 40.324 63.7285H54.5644Z" fill="black"/>
</svg>
