<svg width="19" height="19" viewBox="0 0 19 19" fill="none" xmlns="http://www.w3.org/2000/svg">
<path d="M15.5117 2.71289C13.8381 0.998438 11.5521 0.0187503 9.10293 0.0187503C4.12285 0.0187503 0.0408203 4.10078 0.0408203 9.08086C0.0408203 10.7137 0.489844 12.2648 1.26543 13.6119L0 18.3062L4.77598 17.0816C6.12305 17.7756 7.59258 18.1838 9.10293 18.1838C14.1238 18.1838 18.2875 14.1018 18.2875 9.12168C18.2875 6.67246 17.2262 4.42734 15.5117 2.71289ZM9.10293 16.6326C7.75586 16.6326 6.44961 16.2652 5.26582 15.5713L5.0209 15.408L2.16348 16.1836L2.93906 13.4078L2.73496 13.1221C2.0002 11.8975 1.59199 10.5096 1.59199 9.08086C1.59199 4.95801 4.98008 1.56992 9.14375 1.56992C11.1439 1.56992 13.0217 2.34551 14.4504 3.77422C15.8791 5.20293 16.7363 7.08066 16.7363 9.12168C16.7363 13.2445 13.2666 16.6326 9.10293 16.6326ZM13.2666 10.9994C13.0217 10.877 11.9195 10.3463 11.7154 10.2646C11.5113 10.183 11.348 10.1422 11.1848 10.3871C11.0623 10.5912 10.6133 11.1219 10.4908 11.2852C10.3275 11.4076 10.2051 11.4484 10.001 11.326C8.65391 10.6729 7.79668 10.1422 6.89863 8.63184C6.65371 8.22363 7.14355 8.26445 7.55176 7.40723C7.6334 7.24395 7.59258 7.12148 7.55176 6.99902C7.51094 6.87656 7.02109 5.77441 6.85781 5.32539C6.65371 4.87637 6.49043 4.91719 6.32715 4.91719C6.20469 4.91719 6.04141 4.91719 5.91895 4.91719C5.75566 4.91719 5.51074 4.95801 5.30664 5.20293C5.10254 5.44785 4.53105 5.97852 4.53105 7.08066C4.53105 8.22363 5.30664 9.28496 5.4291 9.44824C5.55156 9.5707 7.02109 11.8566 9.30703 12.8363C10.7357 13.4895 11.3072 13.5303 12.042 13.4078C12.4502 13.367 13.3482 12.8771 13.5523 12.3465C13.7564 11.8158 13.7564 11.3668 13.6748 11.2852C13.634 11.1627 13.4707 11.1219 13.2666 10.9994Z" fill="black"/>
</svg>
